<svg xmlns="http://www.w3.org/2000/svg" viewBox="0 0 73 40"><defs><style>.a{fill:#ef5968;}.b{fill:#0f1214;}.b,.c,.d{fill-rule:evenodd;}.c{fill:#6f578d;}.d{fill:#fff;}</style></defs><title>dino-hover</title><path class="a" d="M60.37,21.94c-0.09-.19-0.18-0.36-0.27-0.54a7,7,0,0,0,2-2.24c1.37-2.45,1-5.1-.82-5.91-1.38-.62-3.18,0-4.58,1.37-0.12-2.46-1.55-4.4-3.51-4.53-2.2-.15-4.26,2-4.67,4.93-4.68-.09-10.37,1.12-16.8,3L21.62,20.85H7.88V32.47l55.73-.39A65.68,65.68,0,0,0,60.37,21.94Z"/><path class="b" d="M53.59,12.69c0.82,0.23,1.24,1.49.93,2.8s-1.22,2.2-2,2-1.24-1.49-.93-2.8S52.77,12.46,53.59,12.69Z"/><path class="b" d="M60.35,15.3c0.67,0.39.7,1.5,0.06,2.47s-1.69,1.44-2.36,1.05-0.7-1.5-.06-2.47S59.68,14.91,60.35,15.3Z"/><path class="b" d="M9.82,4c1.42-.15,2.49.22,2.74,1.13S11.82,6.93,11,7.2,8.07,9.42,7.54,9.89a1.8,1.8,0,0,1-2.15,0A2,2,0,0,1,5.29,7.7C6.05,6,7.7,4.19,9.82,4Z"/><path class="b" d="M29.29,0.53c-1.41.25-2.34,0.91-2.32,1.86S28.19,4,29.09,4s3.42,1.34,4.07,1.65A1.8,1.8,0,0,0,35.21,5a2,2,0,0,0-.5-2.11C33.5,1.47,31.4.16,29.29,0.53Z"/><path class="c" d="M14.33,11A8.58,8.58,0,1,1,8.15,21.43,8.58,8.58,0,0,1,14.33,11Z"/><path class="c" d="M26.62,7a8.58,8.58,0,1,1-6.18,10.45A8.59,8.59,0,0,1,26.62,7Z"/><path class="d" d="M15.09,13.94a5.52,5.52,0,1,1-4,6.72A5.52,5.52,0,0,1,15.09,13.94Z"/><path class="b" d="M16.82,18.77a2.6,2.6,0,1,1-1.88,3.17A2.61,2.61,0,0,1,16.82,18.77Z"/><path class="d" d="M27.39,10a5.52,5.52,0,1,1-4,6.72A5.52,5.52,0,0,1,27.39,10Z"/><path class="b" d="M29.11,14.81A2.6,2.6,0,1,1,27.24,18,2.61,2.61,0,0,1,29.11,14.81Z"/><path class="c" d="M8.89,33.64s1.08,3.83.17,5.89c-2.68-.74-4.19-4-4.19-4s-3,3.36-4.21,3.78C-1,24.11,10.15,26,14.34,33.78A11.58,11.58,0,0,1,8.89,33.64Z"/><path class="c" d="M68,32.75s-1.27,3.77-3.19,5c-1.8-2.12-1.23-5.63-1.23-5.63s-4.35,1.1-5.61.75c7.21-13.53,15.39-5.69,14.44,3.12A11.58,11.58,0,0,1,68,32.75Z"/></svg>