<svg xmlns="http://www.w3.org/2000/svg" id="Layer_1" width="250" height="200" viewBox="0 0 250 200">
  <style>
    .st0{fill:url(#SVGID_1_);} .st1{fill:#EFAB00;} .st2{opacity:0.84;fill:#FFD95C;enable-background:new ;} .st3{fill:#35AA46;} .st4{opacity:0.36;fill:#25722E;enable-background:new ;} .st5{fill:#FCFCDB;} .st6{fill:#F2F3C2;} .st7{fill:#FFEDA1;} .st8{fill:#FFFCEE;} .st9{fill:#896F24;} .st10{fill:#6F568E;} .st11{fill:#FF9B30;} .st12{fill:#E05344;} .st13{fill:#FAC631;} .st14{fill:#51C74E;} .st15{fill:#33B7FC;} .st16{fill:#465660;}
  </style>
  <linearGradient id="SVGID_1_" x2="249.899994" y1="1415.349731" y2="1415.349731" gradientUnits="userSpaceOnUse" gradientTransform="translate(0 -1287.5)">
    <stop offset="0" stop-color="#C1DEB7"/>
    <stop offset=".94" stop-color="#ADD9DA"/>
  </linearGradient>
  <path d="M0 200h249.899994V55.699993H0V200z" class="st0"/>
  <path d="M137.600006 125.999992c16.600006-4.199997 28.600006-20.300003 28.600006-39.300003 0-.800003 0-1.5-.100006-2.300003L166 81.999992h-16.100006c-.199997-.800003-.399994-1.699997-.699997-2.5h-48.5c-.300003.800003-.5 1.699997-.699997 2.599998H84l-.099998 2.300003c0 .800003-.099998 1.5-.099998 2.300003 0 19 12 35 28.599998 39.299995 2.699997 2.600014 5.699997 4.900002 8.900002 6.800011V151h-8v2.600006h-6.199997c-1.5.199997-2.599998 1.5-2.5 3v2.5H145.5v-2.5c.100006-1.5-1-2.800003-2.5-3h-6.199997V151h-7.899994v-18.199997C132 130.899994 135 128.600006 137.600006 125.999992zm23.599991-39c-.100006 13.400002-6.899994 25.099998-17.100006 31 5.800003-9.199997 8.300003-20.199997 6.800003-31h10.300003zm-72.399994 0h10.400002c-1.5 10.800003 1 21.800003 6.800003 31-10.300011-5.900001-17.200005-17.599998-17.200005-31z" class="st1"/>
  <path d="M106.400002 80.399994h7.5c-1.699997 5.400002-2.5 11-2.5 16.700005 0 11.300003 3.400002 22.400002 9.900002 31.800011-10.699997-8.500008-16.900002-21.400009-16.900002-35.100006 0-4.500009.699996-9.100015 2-13.40001zm16.299995 54.400009H125v16h-2.300003zm-8.099999 24.099991v-2.5c0-1.199997.599998-2.300003 1.699997-2.899994h-7.699997c-1.5.199997-2.599998 1.5-2.5 3v2.5l8.5-.100006z" class="st2"/>
  <path d="M188.199997 116.999992c3.300003-1.800003 4.600006-6.599998 5.800003-8.800003v-.199997h-.199997c-3.399994-.099998-6.699997 1.400002-8.800003 4 .399994-1.300003.699997-2.599998.899994-4 1.800003-.199997 3.5-.900002 4.899994-2.199997 2.600006-2.400002 2.600006-7.300003 3.300003-9.699997v-.199997h-.199997c-3.300003.800003-6.100006 3.099998-7.5 6.199997v-2c.800003-1.400002 1.199997-3 .899994-4.599998-.199997-3.599998-2.100006-6.800003-5.100006-8.800003H182v.199997c-.399994 2.400002-2 7.099998-.199997 10.400002.699997 1.300003 1.699997 2.5 2.899994 3.300003v2c-1.800003-3.199997-5-5.199997-8.600006-5.5h-.199997v.199997c.899994 2.400002 1.600006 7.300003 4.600006 9.300003 1.100006.800003 2.399994 1.300003 3.800003 1.599998-.300003 1.599998-.600006 3.300003-1.100006 4.900001 0-.199997-.100006-.400002-.199997-.400002-1-3.599998-3.600006-6.400002-7.100006-7.699997h-.199997v.199997c.199997 2.400002-.199997 7.5 2.199997 10.400002 1 1.099998 2.199997 2 3.5 2.699997-.699997 1.699997-1.5 3.300003-2.399994 4.900002 0-3.699997-1.699997-7.099998-4.699997-9.300003h-.199997v.199997c-.399994 2.400002-2.399994 7.300003-.899994 10.599998.5 1.300003 1.5 2.5 2.600006 3.300003-1.300003 1.700005-2.800003 3.300011-4.399994 4.600014v-.199997c1.199997-3.5.5-7.400009-1.800003-10.400009v-.199997L169.400024 122c-1.300003 2.199997-4.399994 6.200012-4 9.700012.100006 1.5.600006 2.899994 1.600006 4-1.800003 1.100006-3.5 2.199997-5.300003 3.100006 0-.199997.199997-.199997.199997-.399994 2.199997-3 2.800003-6.899994 1.600006-10.399994v-.200005H163c-1.800003 1.800011-6.199997 4.400002-6.600006 8.200005-.399994 1.600006-.199997 3.199997.399994 4.600006-2 .600006-4 1.100006-6 1.600006-.899994.199997 0 1.300003 1.100006 1.300003 1.800003-.399994 3.600006-.899994 5.300003-1.600006 1 1.5 2.399994 2.600006 4 3.300003 3.300003 1.600006 8-.399994 10.600006-1.100006H172l-.199997-.199997c-2.100006-2.699997-5.199997-4.300003-8.600006-4.399994 1.600006-.899994 3.100006-1.800003 4.399994-2.600006 1.399994 1.300003 3.199997 2.100006 5.100006 2.199997 3.800003.399994 7.5-3.100006 9.699997-4.199997l.199997-.199997h-.199997c-4.199997-2.600006-7.699997-2.199997-9.899994-1.300003 1.600006-1.399994 3-2.899994 4.199997-4.600006 1.699997.800003 3.699997 1 5.5.399994 3.5-.699997 6.199997-5.100006 8-6.800011v-.199997H190c-3.5-1.099998-7.300003-.5-10.199997 1.800003.899994-1.599998 1.800003-3.199997 2.399994-4.900002 1.100006-.900031 3.300003-.500029 6-2.100028z" class="st3"/>
  <path d="M162.399994 128.699997c-1.699997 1.600006-3.5 3.300003-4.300003 5.5-.5 1.699997-.699997 3.5-.600006 5.300003m.700012 2.300003c1.699997 1.600006 4.100006 2.399994 6.399994 2.199997 1.800003-.199997 3.600006-.899994 5.399994-.699997M169 123.199989c-1.5 2.300003-3.100006 4.699997-3.100006 7.400002 0 1.699997.5 3.300003 1.5 4.699997l.100006-.600006m.800003 1.500015c2.5 1.300003 5.5 1.399994 8.100006.199997 1.600006-.800003 3.199997-2 5-1.800003l-.100006-.399994m-7-18.900002c-1.699997 3.900002-1 8.5 1.800003 11.699997M188.5 122.399994c-1.300003 1.699997-2.800003 3.099998-4.600006 4.099998s-3.899994 1.5-6 1.199997c-.199997 0-.399994-.099998-.600006-.300003m-1.199982-21.599991c-.199997 4.400002 1.800003 8.699997 5.199997 11.599998M192.5 109.199989c-.899994 2.099998-2.100006 4.099998-3.600006 5.800003-1.600006 1.699997-3.699997 2.699997-6 2.900002m-6.199997-19.800003c.800003 4.099998 3.600006 7.599998 7.600006 9m8.5-10.099999c-.899994 2.099998-.800003 4.599998-1.899994 6.599998-1.100006 1.699997-2.699997 3-4.5 3.800003l.300003-.300003m-4.300018-18.599998c-.699997 1.900002-.800003 4-.199997 6 .5 2 1.600006 3.800003 3 5.300003" class="st4"/>
  <path d="M67.800003 118.599991c.699997 1.699997 1.5 3.300003 2.400002 4.900002-2.900002-2.199997-6.700001-2.900002-10.200001-1.800003h-.200001v.199997c1.799999 1.800003 4.400002 6.200005 8 6.800011 1.800003.600006 3.800003.399994 5.5-.399994C74.5 130 75.900002 131.600006 77.5 132.900009c-2.199997-.899994-5.800003-1.300003-9.900002 1.300003h-.300003l.199997.199997c2.199997 1.100006 6 4.600006 9.699997 4.199997 1.900002-.199997 3.699997-.899994 5.099998-2.199997 1.300003.899994 2.900002 1.800003 4.400002 2.600006-3.400002.100006-6.599998 1.699997-8.599998 4.399994l-.199997.199997h.199997c2.699997.699997 7.300003 2.600006 10.599998 1.100006 1.599998-.699997 3-1.800003 4-3.300003 1.699997.600006 3.5 1.100006 5.300003 1.600006 1.099998 0 2-1.100006 1.099998-1.300003-2-.399994-4-.899994-6-1.600006.699997-1.5.800003-3.100006.400002-4.600006-.400002-3.800003-4.900002-6.399994-6.599998-8.200005h-.199997v.199997C85.5 131 86.099998 134.899994 88.299995 137.899994c0 .199997.199997.199997.199997.399994-1.800003-.899994-3.5-2-5.300003-3.100006.900002-1.100006 1.5-2.5 1.599998-4 .400002-3.500008-2.699997-7.500008-4-9.700005l-.199997-.199997v.199997c-2.300003 3-2.900002 6.800011-1.800003 10.400002v.199997c-1.599998-1.399994-3.099998-2.899994-4.400002-4.600006 1.199997-.800003 2.099998-2 2.699997-3.300003 1.599998-3.300003-.400002-8.199997-.900002-10.599998v-.199997H76c-3 2.199997-4.699997 5.599998-4.599998 9.300003C70.5 121.099976 69.599998 119.499977 69 117.799973c1.400002-.599998 2.599998-1.5 3.5-2.699997 2.400002-2.900002 2-8 2.199997-10.400002v-.199997H74.5c-3.5 1.300003-6.099998 4.199997-7.099998 7.699997-.199997.099998-.199997.300003-.199997.400002-.5-1.599998-.900002-3.199997-1.199997-4.800003 1.400002-.199997 2.599998-.800003 3.800003-1.599998 3.099998-2 3.800003-6.800003 4.599998-9.300003v-.199997h-.199997c-3.599998.300003-6.800003 2.400002-8.599998 5.5v-2c1.199997-.900002 2.199997-2 2.900002-3.300003 1.800003-3.300003.199997-8-.199997-10.400002v-.199997H68c-3 2-4.900002 5.300003-5.099998 8.800003-.3 1.599998.099998 3.199997.900001 4.599998v2c-1.400002-3.099998-4.200001-5.400002-7.5-6.199997h-.200001v.500015c.700001 2.400002.700001 7.300003 3.299999 9.699997 1.299999 1.300003 3 2.099998 4.900002 2.300003.199997 1.400002.5 2.699997.900002 4-2.200001-2.599998-5.400002-4.099998-8.799999-4h-.200001v.199997c1.099998 2.199997 2.400002 7.099998 5.799999 8.800003 2.499996 1.599999 4.699993 1.199997 5.799999 1.599999z" class="st3"/>
  <path d="M87.599998 128.699997c1.699997 1.600006 3.5 3.300003 4.300003 5.5.5 1.699997.699997 3.5.599998 5.300003m-.699996 2.300003c-1.699997 1.600006-4.099998 2.399994-6.400002 2.199997-1.800003-.199997-3.599998-.899994-5.400002-.699997M81 123.199989c1.5 2.300003 3.099998 4.699997 3.099998 7.400002 0 1.699997-.5 3.300003-1.5 4.699997L82.5 134.699982m-.800003 1.500015c-2.5 1.300003-5.5 1.399994-8.099998.199997-1.599998-.800003-3.199997-2-5-1.800003l.099998-.399994m7-18.900002c1.699997 3.900002 1 8.5-1.800003 11.699997M61.5 122.399994c1.299999 1.699997 2.800003 3.099998 4.699997 4.099998 1.800003 1 3.900002 1.5 6 1.199997.199997 0 .400002-.099998.599998-.300003m1.100007-21.599991c.199997 4.400002-1.800003 8.699997-5.199997 11.599998M57.5 109.199989c.900002 2.099998 2.099998 4.099998 3.599998 5.800003 1.599998 1.699997 3.699997 2.699997 6 2.900002m6.200005-19.800003c-.800003 4.099998-3.599998 7.599998-7.599998 9m-8.500004-10.099999c.900002 2.099998.799999 4.599998 1.900002 6.599998 1.099998 1.699997 2.700001 3 4.5 3.800003l-.299999-.400002m4.299994-18.499999c.699997 1.900002.800003 4 .199997 6-.5 2-1.599998 3.800003-3 5.300003" class="st4"/>
  <path d="M41.400002 82.799995c-10.4 1.699997-12 3.099998-13.5 13.5-1.799999-10.400002-3.1-11.900002-13.5-13.5 10.4-1.800003 11.9-3.099998 13.5-13.5 1.499998 10.299996 2.899997 11.699997 13.5 13.5z" class="st5"/>
  <path d="M43.400002 148.5c-8 1.300003-9.099998 2.399994-10.200001 10.199997-1.299999-8-2.4-9.100006-10.200001-10.199997 8-1.300003 9.099998-2.399994 10.200001-10.199997C34.299999 146.100006 35.5 147.199997 43.400002 148.5z" class="st6"/>
  <path d="M236.100006 156.800003c-4.899994.899994-5.5 1.600006-6.399994 6.399994-.899994-4.899994-1.600006-5.5-6.399994-6.399994 4.899994-.899994 5.5-1.600006 6.399994-6.399994.799988 4.899994 1.499985 5.499985 6.399994 6.399994zm-27.200012-24.600006c-3.5.699997-4 1.100006-4.399994 4.399994-.699997-3.5-1.100006-4-4.399994-4.399994 3.5-.699997 4-1.100006 4.399994-4.400009.600006 3.500015 1.100006 4.000015 4.399994 4.400009zm5-45.700005c-4.899994.900002-5.5 1.599998-6.399994 6.400002-.899994-4.900002-1.600006-5.5-6.399994-6.400002 4.899994-.900002 5.5-1.5 6.399994-6.400002.899994 4.900002 1.5 5.599999 6.399994 6.400002z" class="st5"/>
  <path d="M148.300003 79.499992c-8 1.300003-9.100006 2.400002-10.199997 10.199997-1.300003-8-2.399994-9.099998-10.199997-10.199997 8-1.300003 9.100006-2.400002 10.199997-10.199997 1.099991 8 2.299988 8.799996 10.199997 10.199997z" class="st7"/>
  <path d="M113 107.999992c-4 .699997-4.599998 1.099998-5.300003 5.300003-.699997-4-1.099998-4.599998-5.300003-5.300003 4-.699997 4.599998-1.099998 5.300003-5.300003.600006 4 1.100006 4.700005 5.300003 5.300003z" class="st8"/>
  <path d="M37.5 159.199997h174.899994v3.5H37.5z" class="st9"/>
  <path d="M29.149414 25.638298c0 1.308105-.477539 2.429688-1.412109 3.343262-.93457.914062-2.243164 1.370605-3.904297 1.370605-.851562 0-1.474609-.020508-1.889648-.062012v4.485352c0 .415527-.353516.768555-.768555.768555h-1.017578c-.415039 0-.768555-.353027-.768555-.768555v-13c0-.415527.332031-.768555.768555-.768555 1.391602-.020508 2.512695-.041504 3.364258-.041504 4.256835 0 5.627929 2.263672 5.627929 4.672852zm-7.206055 2.22168c.664062.0625 1.266602.104004 1.806641.104004 1.598633 0 2.699219-.789062 2.699219-2.34668 0-1.516113-.892578-2.263672-2.678711-2.263672-.311523 0-.914062.020996-1.827148.041504v4.464844zm8.139649 4.942871c0-1.973145 1.412109-3.032227 3.40625-3.032227.851562 0 1.557617.208008 2.118164.602539v-.291016c0-1.432617-.477539-2.118164-1.745117-2.118164-.560547 0-1.100586.083008-1.598633.249023-.125.041992-.249023.0625-.374023.0625-.332031 0-.560547-.145508-.706055-.436035l-.124023-.249023c-.0625-.145508-.083984-.249512-.083984-.33252 0-.290527.145508-.519043.436523-.664551.892578-.415527 1.806641-.623047 2.700195-.623047 2.658203 0 3.737305 1.308594 3.737305 3.883301v4.921875c0 .415527-.352539.768555-.767578.768555h-.540039c-.416016 0-.768555-.353027-.768555-.768555v-.311523c-.560547.810059-1.495117 1.20459-2.761719 1.20459-1.745117 0-2.928711-1.100585-2.928711-2.865722zm5.524414-.955567c-.394531-.311523-.956055-.456543-1.640625-.456543-.851562 0-1.495117.415039-1.495117 1.163086 0 .685059.560547 1.100586 1.329102 1.100586.80957 0 1.412109-.291016 1.806641-.851562v-.955567zm4.609375 1.287598c.269531-.353027.68457-.353027 1.121094-.041504.685547.457031 1.454102.685547 2.305664.685547.726562 0 1.224609-.311523 1.224609-.87207 0-.561035-.789062-.872559-1.764648-1.142578-1.454102-.373535-3.28125-.913574-3.28125-2.94873 0-1.765137 1.432617-2.845215 3.425781-2.845215 1.163086 0 2.202148.291016 3.115234.87207.208008.145508.311523.353027.311523.623047 0 .145508-.041016.291016-.124023.415527l-.228516.332031c-.166016.228516-.353516.33252-.582031.33252-.124023 0-.290039-.041504-.518555-.145508-.560547-.290527-1.183594-.436035-1.848633-.436035-.685547 0-1.163086.374023-1.163086.810059 0 .87207 1.806641 1.07959 3.260742 1.599121.99707.353027 1.786133 1.183594 1.786133 2.408691 0 1.827637-1.474609 2.990723-3.780273 2.990723-1.349609 0-2.512695-.436035-3.488281-1.287598-.145508-.145508-.228516-.311523-.228516-.519043 0-.187012.041016-.33252.145508-.436523l.311524-.394532zm14.452148.976074c.0625.104004.104492.228516.104492.353027 0 .311523-.125.540039-.353516.664551-.706055.415527-1.495117.623047-2.34668.623047-2.055664 0-2.907227-1.266602-2.907227-3.758789v-7.621582c0-.415039.353516-.768066.768555-.768066h.851562c.415039 0 .768555.353027.768555.768066v1.827637h2.242188c.416016 0 .768555.353027.768555.768555v.706055c0 .415039-.352539.768066-.768555.768066h-2.242188v3.405762c0 1.121582.373047 1.682129 1.121094 1.682129.477539 0 .914062-.20752 1.142578-.20752.269531 0 .498047.145508.643555.415527l.207032.373535zm12.6875-5.523925c-.518555-.249023-1.058594-.374023-1.661133-.374023-.685547 0-1.287109.249512-1.806641.727051-.519531.498535-.789062 1.14209-.789062 1.931152 0 1.599121 1.225586 2.679199 2.700195 2.679199.643555 0 1.245117-.187012 1.806641-.540039.186523-.103516.352539-.166016.498047-.166016.269531 0 .477539.104004.643555.311523l.353516.436035c.103516.104004.145508.228516.145508.415527 0 .290527-.104492.519043-.291016.664551-.93457.726562-2.014648 1.100586-3.28125 1.100586-1.557617 0-2.783203-.457031-3.717773-1.350098s-1.412109-2.07666-1.412109-3.55127c0-1.391113.457031-2.554199 1.371094-3.48877s2.076172-1.412109 3.467773-1.412109c1.183594 0 2.222656.228516 3.074219.706055.249023.145508.373047.374023.373047.685547 0 .124512-.020508.228516-.083008.332031l-.311523.540039c-.186523.290527-.415039.436035-.706055.436035-.124025.000001-.249025-.020506-.374025-.083006zm7.97461 7.185546c-1.515625 0-2.741211-.457031-3.675781-1.391602-.93457-.913574-1.412109-2.07666-1.412109-3.509766 0-1.432617.477539-2.595703 1.412109-3.530273.93457-.913574 2.160156-1.370605 3.675781-1.370605s2.761719.457031 3.696289 1.370605c.93457.93457 1.391602 2.097656 1.391602 3.530273 0 1.433105-.457031 2.596191-1.391602 3.509766-.934571.934571-2.180664 1.391602-3.696289 1.391602zm-2.53418-4.901367c0 1.557617 1.05957 2.679199 2.53418 2.679199 1.495117 0 2.554688-1.080078 2.554688-2.679199 0-1.557129-1.080078-2.658203-2.554688-2.658203-1.432617 0-2.53418 1.080078-2.53418 2.658203zm12.085937-3.633789c.726562-.810059 1.703125-1.20459 2.927734-1.20459 1.391602 0 2.368164.602051 2.720703 1.495117.768555-.99707 1.806641-1.495117 3.15625-1.495117 1.994141 0 2.991211 1.14209 2.991211 3.405762v5.336914c0 .415527-.353516.768555-.768555.768555h-.851562c-.415039 0-.768555-.353027-.768555-.768555v-4.713867c0-1.184082-.540039-1.786133-1.598633-1.786133-.914062 0-1.557617.353027-1.931641 1.080078 0 .083008.020508.540039.020508.685059v4.734863c0 .415527-.352539.768555-.768555.768555h-.850586c-.416016 0-.768555-.353027-.768555-.768555v-4.879883c0-.99707-.560547-1.620117-1.557617-1.620117-.851562 0-1.516602.33252-1.952148.99707v5.50293c0 .415527-.353516.768555-.768555.768555h-.851562c-.415039 0-.768555-.353027-.768555-.768555V26.9674c0-.415527.353516-.768555.768555-.768555h.851562c.415039 0 .768555.353027.768555.768555v.270019zm22.364258 7.102051c-.913086.955566-2.09668 1.433105-3.571289 1.433105-.93457 0-1.662109-.145508-2.180664-.457031v3.61377c0 .415039-.353516.768066-.768555.768066H99.875c-.415039 0-.768555-.353027-.768555-.768066V26.9674c0-.415527.353516-.768555.768555-.768555h.851562c.415039 0 .768555.353027.768555.830566.602539-.602051 1.744141-1.059082 2.886719-1.059082 1.266602 0 2.304688.436035 3.073242 1.329102s1.163086 2.035156 1.163086 3.426758c0 1.453613-.457031 2.658203-1.371094 3.613281zm-5.751953-1.329102c.560547.353027 1.204102.540039 1.972656.540039 1.598633 0 2.617188-1.163086 2.617188-2.762207 0-1.515625-.893555-2.575195-2.451172-2.575195-.80957 0-1.536133.33252-2.138672 1.017578v3.779785zm15.719727.374024c.186523-.104004.352539-.145508.477539-.145508.228516 0 .435547.124512.601562.353027l.1875.27002c.083008.124512.124023.27002.124023.415527 0 .269531-.103516.477539-.332031.623047-.93457.581055-1.972656.87207-3.135742.87207-1.515625 0-2.720703-.457031-3.633789-1.350098-.93457-.893066-1.391602-2.07666-1.391602-3.55127 0-1.391113.457031-2.574707 1.349609-3.509277.893555-.93457 2.097656-1.391602 3.592773-1.391602 1.225586 0 2.28418.394531 3.135742 1.20459s1.288086 1.869141 1.288086 3.135742c0 .249023 0 .436035-.021484.540039-.020508.353027-.456055.747559-.80957.747559h-6.064453c.1875 1.391602 1.308594 2.180664 2.803711 2.180664.66504.000001 1.266602-.124511 1.828126-.39453zm-.125-3.385254v-.041504c0-1.163086-.80957-1.993652-2.138672-1.993652-1.350586 0-2.180664.685547-2.451172 2.035156h4.589844zm9.759765 4.111816c.0625.104004.104492.228516.104492.353027 0 .311523-.125.540039-.353516.664551-.706055.415527-1.495117.623047-2.34668.623047-2.056641 0-2.907227-1.266602-2.907227-3.758789v-7.621582c0-.415039.352539-.768066.767578-.768066h.851562c.416016 0 .768555.353027.768555.768066v1.827637h2.243164c.415039 0 .768555.353027.768555.768555v.706055c0 .415039-.353516.768066-.768555.768066h-2.243164v3.405762c0 1.121582.374023 1.682129 1.12207 1.682129.477539 0 .913086-.20752 1.141602-.20752.270508 0 .499023.145508.644531.415527l.207033.373535zM131.875 22.834587c0 .913574-.643555 1.495117-1.371094 1.495117-.850586 0-1.495117-.581543-1.495117-1.495117 0-.830566.665039-1.391602 1.495117-1.391602.727539.000001 1.371094.561036 1.371094 1.391602zm-.99707 3.364258c.416016 0 .768555.353027.768555.768555v7.808105c0 .415527-.352539.768555-.768555.768555h-.851562c-.415039 0-.767578-.353027-.767578-.768555V26.9674c0-.415527.352539-.768555.767578-.768555h.851562zm9.075195 7.912109c.0625.104004.103516.228516.103516.353027 0 .311523-.125.540039-.352539.664551-.706055.415527-1.496094.623047-2.34668.623047-2.056641 0-2.908203-1.266602-2.908203-3.758789v-7.621582c0-.415039.353516-.768066.768555-.768066h.851562c.415039 0 .768555.353027.768555.768066v1.827637h2.243164c.415039 0 .767578.353027.767578.768555v.706055c0 .415039-.352539.768066-.767578.768066h-2.243164v3.405762c0 1.121582.374023 1.682129 1.121094 1.682129.477539 0 .914062-.20752 1.142578-.20752.269531 0 .498047.145508.643555.415527l.208007.373535zm5.024414-11.276367c0 .913574-.643555 1.495117-1.371094 1.495117-.850586 0-1.495117-.581543-1.495117-1.495117 0-.830566.665039-1.391602 1.495117-1.391602.727539.000001 1.371094.561036 1.371094 1.391602zm-.99707 3.364258c.416016 0 .768555.353027.768555.768555v7.808105c0 .415527-.352539.768555-.768555.768555h-.851562c-.415039 0-.767578-.353027-.767578-.768555V26.9674c0-.415527.352539-.768555.767578-.768555h.851562zm8.286133 9.57373c-1.516602 0-2.741211-.457031-3.675781-1.391602-.93457-.913574-1.412109-2.07666-1.412109-3.509766 0-1.432617.477539-2.595703 1.412109-3.530273.93457-.913574 2.15918-1.370605 3.675781-1.370605 1.515625 0 2.761719.457031 3.696289 1.370605.93457.93457 1.391602 2.097656 1.391602 3.530273 0 1.433105-.457031 2.596191-1.391602 3.509766-.934571.934571-2.180664 1.391602-3.696289 1.391602zm-2.53418-4.901367c0 1.557617 1.05957 2.679199 2.53418 2.679199 1.495117 0 2.553711-1.080078 2.553711-2.679199 0-1.557129-1.080078-2.658203-2.553711-2.658203-1.433594 0-2.53418 1.080078-2.53418 2.658203zm16.217773-.394531c0-1.474121-.706055-2.201172-2.09668-2.201172-.768555 0-1.433594.291016-2.035156.893066v5.606934c0 .415527-.353516.768555-.768555.768555h-.851562c-.415039 0-.768555-.353027-.768555-.768555V26.9674c0-.415527.353516-.768555.768555-.768555h.851562c.415039 0 .768555.353027.768555.851562.726562-.685547 1.619141-1.017578 2.678711-1.017578 2.553711 0 3.841797 1.349609 3.841797 4.028809v4.713867c0 .415527-.353516.768555-.768555.768555h-.851562c-.415039 0-.768555-.353027-.768555-.768555v-4.298828zm4.734375 2.658203c.269531-.353027.685547-.353027 1.121094-.041504.685547.457031 1.454102.685547 2.305664.685547.726562 0 1.224609-.311523 1.224609-.87207 0-.561035-.789062-.872559-1.764648-1.142578-1.454102-.373535-3.28125-.913574-3.28125-2.94873 0-1.765137 1.432617-2.845215 3.426758-2.845215 1.163086 0 2.201172.291016 3.115234.87207.207031.145508.311523.353027.311523.623047 0 .145508-.041992.291016-.125.415527l-.228516.332031c-.166016.228516-.352539.33252-.581055.33252-.125 0-.291016-.041504-.519531-.145508-.560547-.290527-1.183594-.436035-1.848633-.436035-.68457 0-1.163086.374023-1.163086.810059 0 .87207 1.807617 1.07959 3.260742 1.599121.99707.353027 1.786133 1.183594 1.786133 2.408691 0 1.827637-1.474609 2.990723-3.779297 2.990723-1.350586 0-2.513672-.436035-3.489258-1.287598-.145508-.145508-.228516-.311523-.228516-.519043 0-.187012.041992-.33252.145508-.436523l.311525-.394532zm8.991211-9.345215c.291016-.436035.435547-.93457.435547-1.453613 0-.20752-.041016-.415039-.103516-.623047-.0625-.228516-.083008-.373535-.083008-.436035 0-.27002.186523-.519043.540039-.706055l.623047-.374023c.103516-.062012.208008-.083008.332031-.083008.311523 0 .540039.124512.643555.394531.1875.415527.291016.851562.291016 1.287598 0 1.287598-.477539 2.326172-1.453125 3.13623-.25.249023-.873047.249023-1.12207 0-.186523-.187012-.291016-.39502-.291016-.602539 0-.166015.0625-.353027.1875-.540039zm13.933594 10.321289c.0625.104004.103516.228516.103516.353027 0 .311523-.125.540039-.352539.664551-.706055.415527-1.496094.623047-2.34668.623047-2.056641 0-2.908203-1.266602-2.908203-3.758789v-7.621582c0-.415039.353516-.768066.768555-.768066h.851562c.415039 0 .768555.353027.768555.768066v1.827637h2.243164c.415039 0 .767578.353027.767578.768555v.706055c0 .415039-.352539.768066-.767578.768066h-2.243164v3.405762c0 1.121582.374023 1.682129 1.121094 1.682129.477539 0 .914062-.20752 1.142578-.20752.269531 0 .498047.145508.643555.415527l.208007.373535zm1.452148-1.308105c0-1.973145 1.412109-3.032227 3.40625-3.032227.851562 0 1.557617.208008 2.118164.602539v-.291016c0-1.432617-.477539-2.118164-1.744141-2.118164-.561523 0-1.100586.083008-1.599609.249023-.124023.041992-.249023.0625-.374023.0625-.332031 0-.560547-.145508-.706055-.436035l-.124023-.249023c-.0625-.145508-.083008-.249512-.083008-.33252 0-.290527.145508-.519043.435547-.664551.893555-.415527 1.806641-.623047 2.700195-.623047 2.658203 0 3.738281 1.308594 3.738281 3.883301v4.921875c0 .415527-.353516.768555-.768555.768555h-.540039c-.415039 0-.768555-.353027-.768555-.768555v-.311523c-.560547.810059-1.495117 1.20459-2.761719 1.20459-1.745116 0-2.92871-1.100585-2.92871-2.865722zm5.524415-.955567c-.394531-.311523-.955078-.456543-1.640625-.456543-.851562 0-1.495117.415039-1.495117 1.163086 0 .685059.560547 1.100586 1.329102 1.100586.80957 0 1.412109-.291016 1.806641-.851562v-.955567zm4.609374 1.287598c.269531-.353027.685547-.353027 1.121094-.041504.685547.457031 1.454102.685547 2.305664.685547.726562 0 1.224609-.311523 1.224609-.87207 0-.561035-.789062-.872559-1.764648-1.142578-1.454102-.373535-3.28125-.913574-3.28125-2.94873 0-1.765137 1.432617-2.845215 3.426758-2.845215 1.163086 0 2.201172.291016 3.115234.87207.207031.145508.311523.353027.311523.623047 0 .145508-.041992.291016-.125.415527l-.228516.332031c-.166016.228516-.352539.33252-.581055.33252-.125 0-.291016-.041504-.519531-.145508-.560547-.290527-1.183594-.436035-1.848633-.436035-.68457 0-1.163086.374023-1.163086.810059 0 .87207 1.807617 1.07959 3.260742 1.599121.99707.353027 1.786133 1.183594 1.786133 2.408691 0 1.827637-1.474609 2.990723-3.779297 2.990723-1.350586 0-2.512695-.436035-3.489258-1.287598-.145508-.145508-.228516-.311523-.228516-.519043 0-.187012.041992-.33252.145508-.436523l.311525-.394532zm10.778321-12.12793c.415039 0 .768555.353027.768555.768555v13c0 .415527-.353516.768555-.768555.768555h-.851562c-.415039 0-.768555-.353027-.768555-.768555v-13c0-.415527.353516-.768555.768555-.768555h.851562zm1.266601 10.259278c-.270508-.353027-.270508-.851562 0-1.20459l2.512695-3.364258c.270508-.33252.602539-.498535.99707-.498535h.87207c.415039 0 .706055.332031.706055.727051 0 .186523-.0625.332031-.166016.456543l-2.53418 3.094238 2.991211 3.862793c.103516.145508.166016.311523.166016.457031 0 .415527-.332031.747559-.748047.747559h-.93457c-.415039 0-.74707-.166016-.996094-.498535l-2.86621-3.779297zm7.557618 1.868652c.269531-.353027.685547-.353027 1.121094-.041504.685547.457031 1.454102.685547 2.305664.685547.726562 0 1.224609-.311523 1.224609-.87207 0-.561035-.789062-.872559-1.764648-1.142578-1.454102-.373535-3.28125-.913574-3.28125-2.94873 0-1.765137 1.432617-2.845215 3.426758-2.845215 1.163086 0 2.201172.291016 3.115234.87207.207031.145508.311523.353027.311523.623047 0 .145508-.041992.291016-.125.415527l-.228516.332031c-.166016.228516-.352539.33252-.581055.33252-.125 0-.291016-.041504-.519531-.145508-.560547-.290527-1.183594-.436035-1.848633-.436035-.68457 0-1.163086.374023-1.163086.810059 0 .87207 1.807617 1.07959 3.260742 1.599121.99707.353027 1.786133 1.183594 1.786133 2.408691 0 1.827637-1.474609 2.990723-3.779297 2.990723-1.350586 0-2.513672-.436035-3.489258-1.287598-.145508-.145508-.228516-.311523-.228516-.519043 0-.187012.041992-.33252.145508-.436523l.311525-.394532z" class="st10"/>
  <path d="M126.327477 175.366394h-2.486122v9.589005h2.486122" class="st11"/>
  <path d="M127.61454 180.175568c0-2.99118 2.252007-4.985199 5.23513-4.985199 1.801025-.068161 3.469467.946823 4.240555 2.58046l-2.164001 1.026779c-.361816-.833206-1.170578-1.381393-2.076553-1.407867-.733994-.008621-1.439789.284164-1.952896.810211-.513962.526337-.790939 1.239609-.766769 1.975891 0 1.583313 1.111328 2.785538 2.71994 2.785538.907715-.019562 1.719925-.570343 2.076569-1.407867l2.164001 1.026199c-.770813 1.633636-2.438965 2.648911-4.24028 2.58075-3.012451 0-5.235115-2.023361-5.235115-4.985184l-.000581.000289z" class="st12"/>
  <path d="M137.440826 183.606491l1.346024-1.847336c.826309.81395 1.940811 1.267227 3.099884 1.260605.848465 0 1.374786-.322693 1.374786-.791794 0-1.290237-5.527908-.234695-5.527908-3.958984.029343-1.612366 1.403549-3.078613 3.889969-3.078613 1.431152-.049744 2.832977.418762 3.948044 1.319565l-1.345154 1.759338c-.809631-.637924-1.807358-.988815-2.837006-.996872-.7314 0-1.053238.292786-1.053238.703506 0 1.231552 5.498566.322128 5.498566 3.900024 0 1.935623-1.433167 3.196518-4.036072 3.196518-1.988831.088013-3.363327-.527771-4.357895-1.466248v.000291z" class="st13"/>
  <path d="M111.002335 179.999252c.993416-.237274 1.679657-1.146713 1.637955-2.169739 0-1.231567-.905983-2.463409-2.836723-2.463409h-5.498573v9.589584h5.673729c1.901115 0 2.866348-1.231567 2.866348-2.609802.034508-1.136642-.758148-2.13063-1.871788-2.346054h.028763l.000289-.00058zm-1.578995 2.962418h-2.632805c-.177452 0-.341682-.094925-.430557-.249649-.088585-.15416-.088585-.344284 0-.498444.089165-.154434.253105-.249634.430557-.249634h2.632233c.177742 0 .342255.09491.430557.249359.089157.15387.089157.343979 0 .498138-.088585.154449-.253105.249359-.430557.249359l.000572.000871zm0-4.105667h-.761024v.791504c.00518.069885-.004883.139786-.028755.205353l-.117058.176315-.175446.11734h-.409271l-.175446-.117065-.117348-.17601c-.023872-.065292-.033936-.135178-.028763-.205063v-.762177h-.790359c-.274666 0-.497566-.22348-.497566-.498718 0-.275253.22319-.499298.498146-.499298h.78978v-.791794c-.004601-.069611.005753-.139786.029343-.205368l.116768-.1763.175446-.116776h.409271l.175446.117065.117058.1763c.023872.065582.033936.135757.028755.205353v.821136h.819702c.274094 0 .496704.22319.496704.498428 0 .275253-.22261.498444-.496994.498444l-.05896-.058395.000571-.000274z" class="st14"/>
  <path d="M120.53669 181.436447c1.199341-.433716 1.980499-1.596237 1.93045-2.87381 0-1.788956-1.228104-3.196533-3.363335-3.196533h-4.884239v9.589584h2.515175v-3.196243h1.286774l1.638245 3.225281h2.866058l-1.988556-3.548264-.000572-.000015zm-1.082001-1.759613c-.196152.205658-.519424.218597-.73111.028763l-.585007-.586151-.555664.527771-.146683.11734h-.379646l-.146683-.11734-.116776-.146683c-.05378-.120804-.05378-.25972 0-.381088l.117065-.146683.555664-.527771-.585289-.586731-.116776-.17543c-.041412-.126556-.031059-.263458.028763-.381378l.117058-.146683c.196152-.205643.519432-.218582.73111-.028763l.584717.586151.555672-.557098.146683-.117065h.379646l.146683.117355.116768.146683c.05407.121658.05407.259995 0 .381363l-.116768.146683-.555672.586731.585007.586151c.185509.202774.172569.517715-.029335.703796v-.028763l.000573-.00116z" class="st15"/>
  <path d="M105.101677 192.647018c-.007767.147247-.128273.265167-.278984.273224h-.377922c-.151001-.008057-.271217-.125977-.279564-.273224v-4.725479c-.000862-.147827.112747-.272659.263168-.289337h.442924c.150421.002304.290489.073914.378494.192703l1.709282 2.298019 1.643135-2.298019c.082832-.116486.216568-.18782.361526-.192703h.377922c.150993.007767.271217.125687.279556.273239v4.741287c-.008629.147263-.128563.265182-.279556.273224h-.361526c-.150711-.008041-.271225-.125961-.278984-.273224v-3.552017l-1.430298 1.94426c-.08255.116776-.216576.188385-.361534.193283-.150703 0-.291924-.071915-.377922-.192703l-1.429718-1.928726c.000001 0 .000001 3.536193.000001 3.536193zm6.602142-1.077117l-.468803 1.141251c-.051773.124252-.172569.206223-.307747.209091h-.274956c-.07766 0-.151573-.030487-.206223-.084839-.054649-.054642-.085419-.127701-.085419-.204208-.001724-.038544.003738-.076797.016106-.112747l2.006096-4.693253c.054649-.121658.173721-.202484.307747-.208817h.37188c.139778 0 .266335.08197.323563.208817l2.006096 4.709366c.012367.03595.017838.074203.016113.112167 0 .159912-.130295.289627-.291069.289627h-.322983c-.135178-.002884-.255981-.084564-.307747-.208817l-.468811-1.157059h-2.313843v-.000579zm.356064-.867722h1.569214l-.77655-1.880417-.792946 1.880417h.000282zm5.433579 2.233887c-.154739-.007767-.278122-.125687-.286461-.273239v-4.14621h-1.517731c-.154739-.008057-.278412-.125687-.286751-.273239v-.306015c-.002304-.037964.003448-.076218.017258-.112167l.067009-.096359.10067-.064423.11792-.031631h4.013054c.154732.007767.278412.125687.286751.273224v.304871c-.008629.147842-.132301.265472-.286751.273239h-1.517441v4.179001c-.008629.147552-.131729.265472-.286461.273239h-.421356l.00029-.000291zm7.947021-.289048c-.008629.147247-.128563.265167-.279564.273224h-.377922c-.150711-.008057-.271217-.125977-.278984-.273224v-1.977341h-2.482094v1.977341c-.008057.147247-.128563.265167-.278984.273224h-.411285c-.150711-.008057-.271217-.125977-.278984-.273224v-4.725479c-.00058-.15358.121948-.280716.278984-.289337h.377922c.150993.007767.271217.125687.279556.273239v1.896515h2.497917v-1.880997c0-.159332.132874-.289047.296242-.289047h.377922c.144379.015533.255974.131149.263168.273239l.016106 4.741287v.00058zm2.304924-.079666c.010933.256836-.114471.496994-.319252.610886l-.224335.054062c-.244469.005753-.466507-.158752-.55883-.413574-.032501-.085144-.048897-.176895-.048035-.269501.006332-.268051.158768-.503891.383392-.593338l.223763-.035675c.29911.018417.53582.292221.543587.629013v.018127h-.00029zm3.719986-4.251205c-1.045197 0-1.820587.723053-1.820587 1.906876 0 1.182938.775391 1.906006 1.938507 1.906006.355484.001144.704636-.089157 1.01181-.262878l.168549-.048904.151855.032501c.047745.021576.088577.055801.11792.098663l.151855.213684c.033081.048325.050629.10556.050629.16394-.002014.040268-.013519.079666-.033936.115051l-.084274.098648c-.478012.312927-1.043457.473694-1.618683.460175-1.702667 0-2.883026-1.101547-2.883026-2.793869 0-1.693161 1.028214-2.794434 2.866058-2.794434.509079.016098 1.006073.151566 1.44957.394608.088577.037384.147247.119934.152435.213684-.004608.051773-.022156.102966-.050919.147552l-.151566.278976c-.024445.041428-.05925.075653-.101532.098953l-.135178.032776-.168243-.048889c-.314072-.151566-.661514-.224915-1.011826-.213699l.000582.00058zm5.0522-.764191c1.627014 0 2.843338 1.076828 2.843338 2.732315 0 1.655502-1.216614 2.73233-2.843338 2.73233-1.627029 0-2.82724-1.076828-2.82724-2.73233 0-1.655487 1.150452-2.732315 2.82724-2.732315zm0 4.596619c1.134048 0 1.824326-.819687 1.824326-1.864304 0-1.044601-.805313-1.864304-1.824326-1.864304s-1.824326.75528-1.824326 1.864304c.000001 1.10904.805314 1.864304 1.824326 1.864304zm4.78357.498443c-.007767.147247-.125687.265167-.273239.273224h-.369583c-.147537-.008057-.265167-.125977-.273224-.273224v-4.725479c-.00087-.147827.110153-.272659.257126-.289337h.434296c.143799-.001434.280411.063858.369583.17659l1.6716 2.298035 1.607178-2.281921c.0811-.116486.21196-.18782.35376-.192703h.369583c.147537.007767.265182.125687.273224.273239v4.741287c-.008041.147263-.125687.265182-.273224.273224h-.369583c-.147552-.008041-.265472-.125961-.273239-.273224v-3.552017l-1.382263 1.94426c-.0811.116776-.21225.188385-.35376.193283-.147537 0-.285599-.071915-.369873-.192703l-1.398361-1.912628v3.520094z" class="st16"/>
</svg>
