<?xml version="1.0" encoding="utf-8"?>
<!-- Generator: Adobe Illustrator 21.1.0, SVG Export Plug-In . SVG Version: 6.00 Build 0)  -->
<svg version="1.1" id="Layer_1" xmlns="http://www.w3.org/2000/svg" xmlns:xlink="http://www.w3.org/1999/xlink" x="0px" y="0px"
	 viewBox="0 0 250 200" style="enable-background:new 0 0 250 200;" xml:space="preserve">
<style type="text/css">
	.st0{fill:url(#SVGID_1_);}
	.st1{fill:#91C0AE;}
	.st2{fill:#FFFFFF;}
	.st3{fill:#71AA9D;}
	.st4{fill:#C2DDB7;}
	.st5{fill:#6D9B56;}
	.st6{fill:#7FAD41;}
	.st7{fill:#BBBB4B;}
	.st8{fill:#574C4B;}
	.st9{fill:#716260;}
	.st10{fill:url(#SVGID_2_);}
	.st11{fill:#AED375;}
	.st12{fill:#96C53D;}
	.st13{fill:#749C3F;}
	.st14{fill:#CAD250;}
	.st15{fill:#648A3B;}
	.st16{fill:#B0BE46;}
	.st17{opacity:0.33;fill:#588046;enable-background:new    ;}
	.st18{opacity:0.33;fill:#91C671;enable-background:new    ;}
	.st19{fill:#010101;}
	.st20{fill:#466437;}
	.st21{fill:#719271;}
	.st22{fill:#F05A69;}
</style>
<linearGradient id="SVGID_1_" gradientUnits="userSpaceOnUse" x1="125.05" y1="76.8" x2="125.05" y2="202.2" gradientTransform="matrix(1 0 0 -1 0 202)">
	<stop  offset="0" style="stop-color:#85D4F6"/>
	<stop  offset="0.9478" style="stop-color:#FFFFFF"/>
</linearGradient>
<path class="st0" d="M0-0.2h250.1v125.4H0V-0.2z"/>
<path class="st1" d="M-0.1,159.5v-38c155.6-19.2,250.2,0,250.2,0v39.6L-0.1,159.5z"/>
<path class="st2" d="M204.4,52.5c3-6.8-6.4-9.3-8.1-7.6c-7.5-7.2-14.6,1.1-14.6,1.1c-3-1.6-8.7,4.6-5.5,8.6
	c-6.5,2.4-0.1,13.2,2.9,13.7c-2.1,3.4,2.8,12.6,10.5,9.4c11.8,3.9,15.3-7.1,15.3-7.1C207.8,71.8,213.5,54,204.4,52.5L204.4,52.5z
	 M195.5,69.6c-0.2-1.4-1.8-3.9-4.3-3.7c-0.1-1.9-1.5-3.7-3.3-4.3c2.5-0.4,4.3-3.4,3.5-5.8c1.2,1.9,4,2.4,5.8,1.2
	c-0.5,2.2,1.1,4.6,3.2,5.2C194,61.9,195.7,70,195.5,69.6z M64.2,87.8c-1.8-1.7-4.4-2.4-6.7-1.6c-1.4-1.8-4.6-1.2-5.4,1.1
	c0.3-1.6-0.9-3.3-2.4-3.4c1.1-0.6,1.8-2.2,1.5-3.6c0.8,1.2,2.2,1.6,3.6,1.5c4.6-0.3,4.2-10.2-1.7-8.1c-1-2.6-4.1-3.6-6.3-2.3
	c-2.2,1.2-3.5,4.1-3.4,7c-3.7,1.6-4.9,7.7-2.4,11c-1.4,24.5,24.7,17.5,25.3,5.7C66.8,92.5,66,89.6,64.2,87.8z M60.4,99.2
	c-1.8-1.5-4.6-0.9-5.9,1.1c0.6-1.1,1.4-6-1.3-6c1.5-0.2,2.4-2.5,1.4-3.9c0,0,3.4,1.2,4.3,0.5c0,0.8,2,3.4,2.5,3l0.1-0.1l-0.1,0.1
	C60.2,95.2,59.7,97.5,60.4,99.2z"/>
<path class="st3" d="M14.9,102.9c0,0.1,1.7,1.1,1.7,1.1c0.3,0.1-1.5,1.7-1.5,1.7c-0.1,0.1-0.9,2.5-1.2,2.4c0,0-2.1-1.3-2.2-1.3
	l-4.2,1.1c-0.3,0.1-0.7-2.1-0.7-2.1c0-0.1-2.9-2-2.9-2.2c0,0,1-2.8,1-2.9l-0.7-2.5c-0.1-0.3,3-0.9,3.1-1.1c0,0,1-3.2,1.3-3.1
	l2.1,1.3c0.1,0.1,5.5-3.3,5.5-3.3c0.1-0.1,8.6,4.7,8.6,4.7c0.3,0.1-1.7,3.2-1.7,3.2c-0.1,0.1,3.3,3.8,3.2,4l-1.9,4.8
	c0,0.1,1.3,4.4,1,4.4l-5.4,1.2c-0.1,0.1-1.1,2.9-1.1,2.9c-0.1,0.3,4.7-0.7,4.7-0.7c0.1-0.1,2.4,1.9,2.4,1.9l2.3,1.6
	c0.2,0.1-3.4,5.5-3.7,5.4c0,0-2.4-1.4-2.5-1.3l-3.9,2c-0.1,0.1-3.6-2.1-3.7-2.1c0,0-3.4,1.1-3.5,1.1c0,0-3.6-2.3-3.5-2.4l1.7-3.5
	c0.1-0.1-0.9-2.6-0.7-2.7l4-1.1c0.1-0.1,1.4-4.3,1.5-4.3l3.7-1.3c0.1-0.1,1.9-3,1.9-3c0-0.1,0.4-3.7,0.3-3.7l-2.2-1.6
	c0,0-2.5-3-2.7-2.9C15,98.6,14.9,102.9,14.9,102.9z"/>
<path class="st3" d="M6.5,105.5c0,0-2.1,0.1-2.8,2.1C3.7,107.6,5.1,108.3,6.5,105.5z M15,105.6c0,0,0.1,1.8,2.5,2.1
	C17.5,107.7,17.4,105.9,15,105.6z M10.9,113.9c0,0,0.1,1.2,1.4,1.6C12.4,115.5,12.8,113.8,10.9,113.9z M21.3,117.2
	c-0.3,0.1-0.9-1.9,1.5-2.5c0,0,0.9,2-1.7,2.6 M248.8,74.6c0.2-0.3-2.6-1.9-5.1-0.2c-0.4-3-0.8-5.5-1.1-5.5c0,0-9.3,0.9-9.5,0.7
	c0.8-1.3,1.6-3.3,0.9-5.9c-0.1-0.4-2,2-2.3,5c-1.6-1-4.1-2.5-4.2-2.4c0,0-6,1.4-6.3,1.2l-3.6-2.7c-0.7,0.2-5.9,1.5-5.9,1.5
	c-0.4,0.1-1.8,6.3-2,6.5l-2.8,2c-0.5,0.3,4.2,9.6,4.2,9.6c0.3,0.6,4.4-1.8,4.4-1.8c0.5-0.4,2.8,2.1,2.8,2.1c0.3,0.5,4.9-2.1,4.9-2.1
	c0.5-0.4,3.9,3.8,4.4,3.7c0,0,0.4,5,0.5,6.2c-1.2-3.8-5.1-3.1-5.1-3.1c1.1,3,4.4,3.4,5.1,3.5c-0.3,0.8-2.2,6.7-2.9,6.3
	c0,0-4.4-2.9-4.7-2.7c0,0-3.8,2-4,1.9l-4.7-0.8c-0.7-0.1-1.2,3.8-1.2,3.8c0,0.3-1.3,1.8-1.3,1.8c-0.3,0.3,1.5,4,1.5,4
	c0.3,0.4,6.8-1.4,6.8-1.4c0.5-0.2,2.3,2.9,2.3,2.9c0.2,0.4-4.9,4.8-4.9,4.8c-0.3,0.2,0.4,8.6,0.4,8.6v0.4c-1.3-2.2-2.5-2-2.5-2
	c0,3.2,1.7,3.6,2.7,3.6c0.3,3.3,1,9.5,1,9.5c0.3,0.3,13.1-2.5,13.1-2.5c0.1-0.3-2.4-6.6-2.4-6.6c-0.1-0.3,2.4-7.2,2.4-7.2
	c0-0.1,0.5-2.6,1-4.2c0.3,0.6,0.7,1.3,1.6,1.9c0,0,1.3-1.9-0.7-3.4c0,0,6.1,3.1,6.3,3l4.9-1.6c0.2-0.1,3.2-3.4,3.2-3.4
	c0.2-0.3-1.3-6-1.3-6c-0.2-0.5-4.5,0-4.5,0c-0.3,0.1-3.5-2.1-3.5-2.1c-0.9-0.1-1.2-1.3-0.5-1.9c0,0,3.9-3.6,3.7-4c0,0-1.2-4-0.9-4.3
	c0,0,5.9-7.5,5.8-7.8l-0.8-7.2C245.7,76.3,247.9,76,248.8,74.6L248.8,74.6z M197.8,120.6c0,0-3.3-3.6-4.6-5.2
	c4.5-0.3,3.7-2.8,3.6-2.8c-3,0.4-3.7,2-3.8,2.6c-0.2-0.2-0.3-0.4-0.3-0.4s-0.9-6.2-1.5-6.2l-4.7,0.3c-1,0.1-1.5-1-0.9-1.7
	c0,0,2.7-4.2,2.3-4.6l-1.4-1.3c-0.5-0.4,2.2-4.2,2.2-4.2c0.3-0.4,0.4-1,0-1.4l-2.9-3.9c3.1,0.9,3.6-1.2,3.6-1.2
	c-1.3-0.8-2.7-0.3-3.6,0.2c0.3-1.6,1.4-4.9,1.4-4.9c0.2-0.6-4.3-1.8-6.1-2.4c1.2-0.6,3.7-2.3,3.4-4.5c0,0-3.6,0.5-3.9,4.2
	c-0.1,0-0.1-0.1-0.1-0.1l-2.5-5.6c-0.3-0.6-6.3,2.8-6.5,2.8h-6.8c-0.3,0-0.7,1.7-1.1,3.1c-1.6-0.9-3.2-0.7-3.2-0.4
	c0.2,1.3,1.1,2.1,2.1,2.7l-4.7,1.7c-0.6,0.2,2,6.5,2,6.5c0.2,0.4-3.3,4.9-3.3,4.9c-0.4,0.5,2.7,3.9,2.7,3.9c0.2,0.2,0.4,4.8,0.4,4.8
	c0,0.4,2.3,3,1.4,3.3l-3,0.8c-0.6,0.2,0.2,5.1-0.1,5.4l-3.8,3.4c-0.2,0.1,0.6,2.7,1.5,5.7c-1.9-1-3.6,0-3.7,0
	c1.1,2.4,3.1,2.9,4.6,2.8c1.1,3.5,2.1,6.7,2.1,6.7c0.1,0.5,6.4,0.7,6.4,0.7c0.2,0,6.9,4.1,6.9,4.1c0.2,0.1,11.2-0.3,11.2-0.3
	c0.5,0,2.5-6.2,2.5-6.2c0.1-0.5,6.7-0.3,6.7-0.3c0.7,0.1,1.2-6.4,1.2-6.4C193.4,127.2,198.2,121,197.8,120.6L197.8,120.6z
	 M168.5,97.7c-0.6-0.6-0.1-1.8,0.9-1.8c0,0,2.9-0.5,2.9-1.1v-1.5c0-0.7,3.4-0.1,3.4,0.4c0,0,0.5,3.9,1.1,3.9h1.2
	c0.5,0,0.9,4.9,0.1,4.5c0,0-2.5-1.2-2.9-0.9c0,0-0.6,0.4-1.4,0.9c0.6-2.5-1.6-3.1-1.6-3.1c-0.7,2.5,0.7,3.1,1.3,3.3
	c-0.8,0.5-1.6,0.9-1.8,0.8l-3.4-1.5c-0.8-0.3,0.2-2.2,0.2-2.2C168.9,99,168.5,97.7,168.5,97.7L168.5,97.7z M180.8,124.8
	c0,0,1.2,3.6,0.3,3.4c0,0-3.6-0.3-3.8-0.1c0,0-4.1,3.2-4.5,2.6l-1.7-2.6c-0.1-0.2-2.1-0.6-3.8-1c3.3-1.8,2-4.5,2-4.6
	c-2.6,0.9-2.7,3.4-2.6,4.4c-0.9-0.3-1.6-0.6-1.5-0.8c0,0,1.6-3.3,1.6-3.5v-2.8c0-0.7,4.4-0.3,4.4-0.3c0.5,0.1,2.9-2.8,3.5-2.4
	l3.4,2.5c0.2,0.1,4.2,0.2,4.2,0.2C182.9,121.4,180.5,124.5,180.8,124.8L180.8,124.8z"/>
<path class="st3" d="M157.1,117.2c-2-4-3.5-2.1-3.5-2.1C154.8,117.4,157.1,117.2,157.1,117.2z"/>
<path class="st2" d="M103.6,49.7c3.3-8.1,14.8-2.7,12.4,2.3c10.1,7,2,18.5-5.8,16.1c5.1,1.8,7.5,8.7,4.9,13.6
	c-2.5,4.9-12.2,8.9-17.6,3c-2.7,2.1-6.8,2.3-9.6,0.3c-2.7-2.1-3.4-6.5-1.1-9c-1.7-2.5-2-6.4,0.1-8.6c2.2-2.2,6.8-1.3,7.3,1.8
	c2-2.3,6.2-1.4,8.8,1.4c-2.2-2.9-2.1-6-0.1-8.3s4.6-2.5,7.6-1.8c0.8-1.6,0.7-6.6-4.4-2.7c-1.2,0.2-2.5-0.5-3.1-1.6
	C93.4,59.2,96.6,45.5,103.6,49.7z M0,82.5c3.9,3.8,13.1,0.5,10.2-4.3c2.6,5.1,14.5-0.1,10.8-5.4c2.6-0.5,4.5-3.1,4.2-5.7
	s-2.9-4.7-5.5-4.5c3.9-3.7-4.1-10-7.9-6.7C9.3,50.1,3.2,51,0,53.1"/>
<path class="st4" d="M233.3-0.2c0,0-2,3-2.1,3.1c-1.4,2.4-32,52.3-54,0.2c0-0.1-1.1-3.2-1.1-3.3h-4c0,0,1,3.1,1.1,3.2
	c0.4,0.9,1.9,4.2,4.3,8.2c-4,3.2-1,8.9-1.1,8.9c2.3-2.1,3-4.3,3-6c9.5,13.8,29.4,30.5,55.7-11.2c0,0,2-3.1,2.1-3.1
	C237.2-0.2,233.3-0.2,233.3-0.2z"/>
<path class="st4" d="M226.8,14.5c0,0,4.2,4.7,10-0.8C236.8,13.7,233.8,7.3,226.8,14.5z M98.6-0.2c-6.8,9.2-15,18.5-25.1,27.6
	C63.1,36.7,53.2,43.7,44,48.8c-4.3-8.5-16.6-5.3-16.6-5.3c3.4,5.5,7.5,7.6,10.9,8.2C22.9,59.2,9.8,61.2,0,60.4v6.5
	c17.1,1.4,41.8-6.9,71.5-32.6c-4.8,8.6,0.1,15.4,0.9,14.9c7.8-5.3,3.9-14.8,2.3-17.8c2.8-2.5,5.7-5.2,8.6-8
	c8.3-8.1,15.3-16,21.1-23.6C104.4-0.2,98.6-0.2,98.6-0.2z"/>
<path class="st5" d="M164.1,198.8c-1.5-6.6-21.3-39.4-10.4-54.6c8.8-12.4,23.1-3.9,25.1-2.5c6.7-20,26.2-16.7,31.8-5.2
	c6.5-8.4,22.5-2.3,22.1,6.3c4.8-5.7,9.6-7.6,17.4-5.7l0.1,62.7"/>
<path class="st6" d="M250,171.2v-3c0,0-2.7-1.5-6.6-2.6c4.8-1.4,5.4-6.3,5.5-6.3c-6.2-0.8-9.4,3.1-10.7,5.1
	c-2.5-0.4-5.2-0.5-7.8-0.1c1.7-2.3,3-5.5,0.8-9.1c0,0-5.7,2.6-4.8,10.2c-5.2,2.1-9.9,6.9-12.3,16.6c-2.6-5.4-14.6-22.2-35.4-16.5
	c7-6.5,4.7-13.5,4.7-13.5c-5.8,2.6-9.3,5.8-11.5,8.9c-1.1-13.7-11-15.2-11-15.2c-0.2,4.2,0.3,7.6,1.2,10.4c-4-0.9-8.4-0.3-11.6,1.6
	c0.3-10.4-10.7-14.7-19.8-12.5c0.1-8.6-7.3-18.4-17.2-17.5c2.4-6.1,2.5-19.5-6.9-15.9c0.5-8.7-13.7-15-13.9-4.8
	C77,98.4,66.3,118.9,76,131.1c-14.6,1.5-17,15.5-17,15.5c-6.3-1.8-17-2.4-25,5.8c-2.1-2.2-5.6-3.9-8.9-4.6
	c3.7-7.8-0.3-13.4-0.3-13.4c-5.3,4.8-7.6,9.6-8.4,13.5c-6-6.6-12.7-4.8-12.7-4.8c1.5,4,3.4,6.9,5.3,9.2c-3-1-6.1-0.9-9.1-0.1v47.7
	h244.2c-4.8-13.2-12.3-20.7-24.4-18.9c0.8-2.5,2.1-5.5,4.2-8c3.1,4.8,9.5,1.8,9.5,1.8c-2.7-3.9-6.3-3.7-8.3-3.1
	C229.7,167.1,237.3,164.8,250,171.2z"/>
<path class="st4" d="M219.8,128.4c-27.5-2.5-44.8-24.5-50.9-45.1c-20-67.7-15.3-83.6-15.3-83.6h-9.4c-1.8,5.7,4.8,41.5,8,51.2
	c0.6,1.9,1.4,4.1,2.1,6.4c-4.6-0.1-9.1,1.5-12.1,4.7c-2,2.1-3.3,5.4-2,8.6c1,2.3,3.3,3.9,5.7,4.7c3.3,1.1,7.1,0.6,9.1-1.9
	c2-2.4,1.7-7-1-9.4c-1.4-1.3-4.7-2.3-6.8-2.5c2.2-1.4,5-2,7.9-1.9c6,17.9,16,44.3,33.5,60.4c-3,0.5-7.6,2.4-10.3,8.6
	c6.5,1,11.6-2,12.9-6.3c0.6,0.5,1.1,0.9,1.7,1.3c-1.1,1.8-4.2,8,1,15.3c3.8-4.4,4.3-9.6,2.2-13c7,4.6,15,7.6,24.1,8.1
	c10.7,0.6,21.1-4,29.9-10.2v-6.2C240.8,125,230.7,129.3,219.8,128.4L219.8,128.4z M152.8,71.9c-2.8,3.6-14.1,1.1-8.2-8.1
	C147,60.4,156.6,67,152.8,71.9z"/>
<path class="st7" d="M50.8,174c-0.8,2.8-1,5.7-1,8.6c-12.5-14.7-33.1-12.6-38-10.9c-0.8,6.3-0.1,26.7,20.7,28.2H55
	c3.6,0.1,30.5,0.4,31.1,0c3.8-3.1,6.8-5.8,9.6-9.9L50.8,174L50.8,174z"/>
<path class="st6" d="M124.8,108.8c-1.9-4.9-2.2-10.3-0.9-15.4c4.8,3,7.9,8.4,8,14c0.6-1.5,2.1-2.4,3.5-3.1c3.2-1.6,6.7-2.9,10.3-3.7
	c0.5,5.6-1.5,11.3-5.4,15.4c4.7,0.3,9.3,2.3,12.7,5.5c-7.2,2.2-15.2,1.8-22.2-0.9"/>
<path class="st8" d="M202.4,198.3l-71.2-26.1c1.7-2.7,3.2-5.6,4.4-8.7c9.8-25-2.7-53.2-27.8-62.9s-53.4,2.7-63.1,27.7
	s2.7,53.2,27.8,62.9c21.2,8.2,44.7,0.6,57.3-17l71.9,26L202.4,198.3L202.4,198.3z M75.9,182.6c-20.4-7.9-30.5-30.7-22.6-51
	c7.9-20.2,30.8-30.4,51.2-22.5s30.5,30.7,22.6,51S96.3,190.5,75.9,182.6z"/>
<path class="st9" d="M209.6,183.3l-72.2-27.9c7.6-24.1-4.8-50.5-28.9-59.8c-25.1-9.7-53.4,2.7-63.1,27.7s2.7,53.2,27.8,62.9
	c20.3,7.8,42.7,1.2,55.7-14.8l0.6,0.3l73.5,28.4c1.9,0.7,3.9-0.2,4.6-2l4-10.3C212.3,186,211.4,183.9,209.6,183.3L209.6,183.3z
	 M76.6,177.7c-20.4-7.9-30.5-30.7-22.6-51c7.9-20.2,30.8-30.4,51.2-22.5s30.5,30.7,22.6,51S96.9,185.6,76.6,177.7z"/>
<linearGradient id="SVGID_2_" gradientUnits="userSpaceOnUse" x1="70.6" y1="52.5007" x2="70.6" y2="202.2007" gradientTransform="matrix(1 0 0 -1 0 202)">
	<stop  offset="0" style="stop-color:#85D4F6"/>
	<stop  offset="0.9351" style="stop-color:#FFFFFF"/>
</linearGradient>
<path class="st10" d="M76.8,108.8c-4.5,1.6-8.8,4.1-12.4,7.3c3.2-0.1,6.3-0.3,9.5-0.4C74.4,113.2,75.4,110.8,76.8,108.8z"/>
<path class="st1" d="M115.3,126.6c2.8-0.3,5.3,0.3,7.6,1.4l1-2.2l0.1,0.1c0-0.2,0-0.4,0.1-0.6c-2-3.3-4.6-6.3-7.5-8.9
	C116.9,119.8,116.3,123.9,115.3,126.6z M127,131c-0.6-1.4-1.2-2.8-2-4.1c-0.1,0.3-0.4,1-0.8,1.9C125.2,129.4,126.1,130.1,127,131z
	 M68.4,124.3c2.2,0.3,4.2,0.7,6.3,1c-1.2-3.1-1.4-6.5-0.8-9.6c-3.1,0.1-6.3,0.2-9.5,0.4c-0.2,0.9-0.6,1.9-1.1,2.9
	c-1.1,2.2-3.3,3.4-5.2,4.1l-0.1,0.1C61.6,123.5,65.1,123.9,68.4,124.3z"/>
<path class="st11" d="M59.3,134.5c-0.3-1.2-1-5.4,2.6-6.9c4.5-1.9,6.1-3,6.4-3.3c-3.3-0.4-6.7-0.8-10.4-1.2
	c-0.9,1.3-1.8,2.7-2.6,4.1c1.1,2.6,2.2,5.7,3.2,9C58.5,136.2,59.3,134.5,59.3,134.5z M54.8,128.5c-0.5,1-1,2-1.4,3.1
	c-0.2,0.6-0.4,1.2-0.6,1.7c1.1,0.8,1.8,2,2.2,2.8l2.8,0.8C56.9,133.9,55.9,131,54.8,128.5L54.8,128.5z M74.8,127.7
	c0.5,0.2,0.5,1.5-0.1,2.7c0.4-0.1,0.8-0.2,1.2-0.2c0.2-0.4,0.4-0.7,0.6-1.2c-0.8-1.2-1.4-2.4-1.9-3.7c-2-0.3-4.1-0.6-6.2-0.9
	c0,0.5,0.1,4-1.7,6.8l1.9-2.6l1,0.5c0.1-0.2,0.2-0.4,0.3-0.7c0.6-1.3,1.6-2.2,2.1-1.9s0.5,1.5-0.2,2.9c-0.1,0.3-0.3,0.5-0.4,0.7
	l1,0.5c0.1-0.3,0.2-0.6,0.4-1C73.3,128.3,74.2,127.4,74.8,127.7z M60.1,134.9l-1.1,2.8c0.6,1.9,1.1,4,1.6,6.2
	c0.5-1.7,1.6-4.2,3.5-6.7c-0.4-0.8-0.6-1.4-0.6-1.4l2.7-3.9C64.9,133.4,63,134.7,60.1,134.9L60.1,134.9z M59.9,145.5l0.1,0.1
	c-0.6-2.7-1.2-5.2-1.9-7.6l-3.3-1c-1.1,0.8-2.3,1.3-3.3,1.6v1.1H52C56.5,139.9,59.3,144.5,59.9,145.5L59.9,145.5z"/>
<path class="st12" d="M74.6,125.3c0.5,1.3,1.1,2.5,1.9,3.7c2.8-5,9.2-14.5,18.4-15.7c0.3-0.5,0.9-0.8,1.5-0.6
	c0.8,0.1,1.3,0.9,1.1,1.6c-0.1,0.8-0.9,1.3-1.6,1.1c-0.3,0-0.5-0.2-0.7-0.3c-3,0.6-12.5,3.7-18.5,17.9l0.5,0.2
	c0.4-0.7,9.7-15.2,22.1-15c0.4-0.4,1-0.6,1.5-0.4c0.7,0.3,1.1,1.1,0.9,1.8c-0.3,0.7-1.1,1.1-1.8,0.9c-0.3-0.1-0.5-0.2-0.6-0.4
	c-3.1,0.2-12.4,1-20.5,14.1l6.4,3.4c1.5-0.3,3-0.5,4.5-0.7c3.3-2.4,7.7-3.9,12.7-2.3c0,0-0.2,0.8-0.5,2.1c5,0.4,10.3,1.3,16.1,2.8
	l4.9-11.3c-2.3-1.1-4.9-1.7-7.6-1.4c1-2.7,1.7-6.8,1.2-10.3c-3.4-3-7.4-5.5-11.9-7.2c-9.3-3.6-19.1-3.4-27.8-0.3
	c-1.5,2-2.5,4.3-3,6.9C73.3,118.8,73.5,122.1,74.6,125.3z"/>
<path class="st6" d="M54.4,155.9c0.1,0.2,0.1,0.3,0.2,0.5c0.1-0.1,0.2-0.3,0.4-0.4C54.8,155.9,54.6,155.9,54.4,155.9z"/>
<path class="st12" d="M58.6,151.9c0.7-0.7,1.4-1.4,2.2-2.1c-0.1-0.8-0.3-1.6-0.4-2.4l-1.2-1.3c-1.3,0.6-4,1.7-7.1,1.4
	c0.1,0.7,0.2,1.3,0.4,2c0.6,0,1.2,0,1.9-0.1C56.4,149.4,57.8,150.6,58.6,151.9L58.6,151.9z M61.3,147.5l0.3,1.5
	c1.2-1.1,2.5-2.1,3.9-3.1c-0.8-0.1-1.4-0.2-1.8-0.2L61.3,147.5z M127,131c-0.9-0.8-1.8-1.6-2.8-2.2c-1.1,2.6-3.1,7.3-5,11.8
	c0.2,1,0.6,2.7,0.8,4.8c3.2,0.4,6.4,2.9,8.8,7.4c0.4-1.3,0.8-2.6,1-4C130.3,142.7,129.3,136.6,127,131z M74.7,130.4
	c0,0,0,0.1-0.1,0.1c-0.2,0.4-0.4,0.7-0.6,1l1,0.5l0.9-1.8C75.5,130.2,75.1,130.3,74.7,130.4z M61.1,146.4l2.1-1.5
	c0.3-1,0.9-2.9,2.1-4.5c-0.4-1.3-0.9-2.4-1.2-3.3c-1.9,2.5-3,5.1-3.5,6.7C60.7,144.7,60.9,145.6,61.1,146.4z"/>
<path class="st5" d="M58.6,151.9c-0.8-1.3-2.1-2.5-4.3-2.4c-0.7,0-1.3,0.1-1.9,0.1c0.5,2.2,1.2,4.3,2,6.3c0.2,0,0.4,0.1,0.6,0.1
	C56.1,154.6,57.3,153.2,58.6,151.9L58.6,151.9z M63.3,119c0.5-1,0.9-2,1.1-2.9c-2.4,2-4.5,4.4-6.4,7C60,122.4,62.2,121.2,63.3,119z
	 M71.7,142.1c0.7-0.3,1.4-0.7,2.1-1l-2.9-1.7C71.3,140.4,71.5,141.3,71.7,142.1z M66.1,131.9l0.5-0.7c1.8-2.8,1.7-6.4,1.7-6.8v-0.1
	h-0.1c-0.3,0.2-1.9,1.4-6.4,3.3c-3.6,1.5-2.9,5.7-2.6,6.9l-0.7,1.8c-1-3.3-2.1-6.3-3.2-9l-0.6,1.2c1,2.6,2,5.4,3,8.5l-2.8-0.8
	c-0.4-0.7-1.1-1.9-2.2-2.8c-0.5,1.5-0.9,3-1.2,4.6v0.7c1.1-0.2,2.2-0.7,3.3-1.6l3.3,1c0.7,2.4,1.3,4.9,1.9,7.6l-0.1-0.1
	c-0.5-1-3.4-5.6-7.9-5.8h-0.5c-0.1,2.7,0.1,5.3,0.5,7.9c3.1,0.2,5.8-0.8,7.1-1.4l1.2,1.3c0.1,0.8,0.3,1.6,0.4,2.4
	c0.3-0.2,0.5-0.5,0.8-0.7l-0.3-1.5l-0.5,0.4l0.5-0.4l2.3-1.8c0.4,0.1,1.1,0.2,1.8,0.2c0.3-0.2,0.6-0.5,1-0.7
	c-0.2-1.7-0.6-3.4-1.1-4.9c-1.2,1.7-1.9,3.6-2.1,4.5l-2.1,1.5c-0.2-0.9-0.3-1.7-0.5-2.6c-0.5-2.2-1-4.2-1.6-6.2L60,135
	C63,134.7,64.9,133.4,66.1,131.9z"/>
<path class="st13" d="M120,145.4c0.6,4.8,0.8,12.1-1.7,19.3c0.3,0.3,0.4,0.6,0.4,0.9c0,0.4-0.4,0.8-1.1,1.1c-0.9,2.2-2,4.3-3.5,6.3
	c6.1-4.3,11-10.4,13.9-17.8c0.3-0.8,0.6-1.6,0.8-2.4C126.4,148.3,123.2,145.8,120,145.4L120,145.4z"/>
<path class="st6" d="M124.2,126l0.5,0.3c-0.2-0.4-0.4-0.8-0.7-1.1c0,0.2,0,0.4-0.1,0.6C123.9,125.8,124.2,126,124.2,126z"/>
<path class="st5" d="M124,125.9l-1.1,2.2l-4.9,11.3c0.3,0.1,0.6,0.1,0.9,0.2c0,0,0.1,0.4,0.3,1c2-4.6,3.9-9.2,5-11.8
	c0.4-0.9,0.7-1.6,0.8-1.9c-0.1-0.2-0.2-0.3-0.3-0.5l-0.5-0.3C124.2,126.1,124,125.9,124,125.9z"/>
<path class="st14" d="M86.8,148.5c-0.4,4.6,0.8,7.7,1.9,9.6c1.5,0.1,3.1,0.2,4.6,0.4c0.4,0,0.8,0.1,1.3,0.1l1.2-5L86.8,148.5z
	 M112.1,141.3c0,0-5.9-0.2-11.4,4.6l4,2.2l-3.9,8.6l-3.5-2c-0.4,1.8-0.8,3.3-1.1,4.2c4,0.5,7.8,1.1,11,1.8L112.1,141.3L112.1,141.3z
	 M81.8,157.8c0.5-0.1,1-0.1,1-0.1c-3.4-3.1-3-9.2-2.5-12.8l-3.5-2c-1.7,7.2,0.2,12.4,1.6,14.9C79.4,157.7,80.6,157.8,81.8,157.8
	L81.8,157.8z"/>
<path class="st14" d="M85.5,147.8l-3.9-2.2c-0.6,6,1.2,10.3,2.4,12.3c1.2,0,2.3,0.1,3.6,0.2C85,155,85.1,150.7,85.5,147.8z
	 M85.2,137.5l2.2,1.2c0.7-0.7,1.5-1.3,2.3-1.9C88.2,137,86.7,137.2,85.2,137.5z M119.1,140.6c-0.2-0.7-0.3-1-0.3-1
	c-0.3-0.1-0.6-0.2-0.9-0.2c-5.8-1.5-11.1-2.4-16.1-2.8c-0.3,1.4-0.8,3.3-1.4,5.5c3.5-2.9,8.3-5.2,14.1-3.3c0,0-3.9,15.3-5.6,22.3
	c4.8,1.1,8.2,2.4,9.3,3.6c2.4-7.2,2.3-14.5,1.7-19.3C119.7,143.3,119.4,141.6,119.1,140.6z M90.3,140.2l7.8,4.2l1.8-7.4
	C99.9,137,95.2,136.8,90.3,140.2z"/>
<path class="st14" d="M92.4,167.2c-14.3-1.5-25.6-4.6-25.4-7c0.1-1.4,4.1-2.2,10-2.4c-4.4-4.8-1.5-15.3-1.5-15.3l0.2-0.2l-2-1.1
	c-0.7,0.3-1.4,0.6-2.1,1c1,4.6-0.6,7.9-0.6,7.9l-5.1-1c0.4-1.1,0.4-2.4,0.3-3.8c-0.3,0.2-0.6,0.4-1,0.7c-1.4,1-2.6,2-3.9,3.1
	c-0.3,0.2-0.5,0.5-0.8,0.7c-0.8,0.7-1.5,1.4-2.2,2.1c-1.3,1.3-2.5,2.7-3.6,4c-0.1,0.1-0.2,0.3-0.4,0.4c4,9.4,11.7,17.3,22.1,21.3
	c12.9,5,26.8,2.8,37.3-4.7c1.5-2,2.6-4.2,3.5-6.3C114.3,168.2,104.2,168.5,92.4,167.2z"/>
<path class="st15" d="M118.6,165.6c0-0.3-0.1-0.6-0.4-0.9c-0.2,0.6-0.5,1.3-0.7,1.9C118.2,166.3,118.6,166,118.6,165.6z"/>
<path class="st13" d="M118.6,165.6c0-0.3-0.1-0.6-0.4-0.9c-0.2,0.6-0.5,1.3-0.7,1.9C118.2,166.3,118.6,166,118.6,165.6z"/>
<path class="st16" d="M79.5,159.2c0.3-0.9,1.5-1.3,2.3-1.4h-3.5c0.5,1,1,1.6,1.1,1.8C79.4,159.3,79.5,159.2,79.5,159.2L79.5,159.2z"
	/>
<path class="st17" d="M79.5,159.2c0.3-0.9,1.5-1.3,2.3-1.4h-3.5c0.5,1,1,1.6,1.1,1.8C79.4,159.3,79.5,159.2,79.5,159.2L79.5,159.2z"
	/>
<path class="st16" d="M109,161.1c-0.5,2.1-0.9,3.4-0.9,3.4c0-0.2,8.5,0.9,8.5,0.9s1.2,0.9-0.3,1.6l-10.4-0.8l1.4-5.5
	c-3.2-0.7-7-1.3-11-1.8c-0.2,0.9-0.3,1.4-0.3,1.3c0-0.2,8.5,0.9,8.5,0.9s1.2,0.9-0.3,1.6l-10.4-0.8l0.8-3.2c-0.4,0-0.8-0.1-1.3-0.1
	c-1.6-0.2-3.1-0.3-4.6-0.4c0.9,1.4,1.7,2.1,1.7,2.1c-2.7-0.3-4.2,0.8-4.2,0.8c-1.7,0-1.1-0.8-1.1-0.8c0.5-1.5,3.2-1.5,3.2-1.5
	c-0.3-0.2-0.5-0.5-0.7-0.8c-1.2-0.1-2.4-0.1-3.6-0.2c0.5,0.8,0.9,1.3,0.9,1.3c-2.7-0.3-4.2,0.8-4.2,0.8c-0.8,0-1.1-0.2-1.2-0.3
	c-2.6-0.3-4.2,0.8-4.2,0.8c-1.7,0-1.1-0.8-1.1-0.8c0.5-1.5,3.2-1.5,3.2-1.5c-0.1-0.1-0.3-0.2-0.4-0.4c-6,0.2-9.9,1-10,2.4
	c-0.3,2.4,11.1,5.6,25.4,7c11.8,1.2,21.9,0.9,25.2-0.6c0.3-0.6,0.5-1.3,0.7-1.9C117.2,163.5,113.8,162.2,109,161.1z"/>
<path class="st18" d="M109,161.1c-0.5,2.1-0.9,3.4-0.9,3.4c0-0.2,8.5,0.9,8.5,0.9s1.2,0.9-0.3,1.6l-10.4-0.8l1.4-5.5
	c-3.2-0.7-7-1.3-11-1.8c-0.2,0.9-0.3,1.4-0.3,1.3c0-0.2,8.5,0.9,8.5,0.9s1.2,0.9-0.3,1.6l-10.4-0.8l0.8-3.2c-0.4,0-0.8-0.1-1.3-0.1
	c-1.6-0.2-3.1-0.3-4.6-0.4c0.9,1.4,1.7,2.1,1.7,2.1c-2.7-0.3-4.2,0.8-4.2,0.8c-1.7,0-1.1-0.8-1.1-0.8c0.5-1.5,3.2-1.5,3.2-1.5
	c-0.3-0.2-0.5-0.5-0.7-0.8c-1.2-0.1-2.4-0.1-3.6-0.2c0.5,0.8,0.9,1.3,0.9,1.3c-2.7-0.3-4.2,0.8-4.2,0.8c-0.8,0-1.1-0.2-1.2-0.3
	c-2.6-0.3-4.2,0.8-4.2,0.8c-1.7,0-1.1-0.8-1.1-0.8c0.5-1.5,3.2-1.5,3.2-1.5c-0.1-0.1-0.3-0.2-0.4-0.4c-6,0.2-9.9,1-10,2.4
	c-0.3,2.4,11.1,5.6,25.4,7c11.8,1.2,21.9,0.9,25.2-0.6c0.3-0.6,0.5-1.3,0.7-1.9C117.2,163.5,113.8,162.2,109,161.1z"/>
<path class="st8" d="M53.4,131.6c0.4-1.1,0.9-2.1,1.4-3.1l0.6-1.2c0.8-1.4,1.6-2.8,2.6-4.1l0.1-0.1c1.8-2.6,4-4.9,6.4-7
	c3.7-3.2,7.9-5.6,12.4-7.3c8.7-3.1,18.5-3.3,27.8,0.3c4.5,1.7,8.5,4.2,11.9,7.2c3,2.6,5.5,5.6,7.5,8.9c0.2,0.4,0.5,0.7,0.7,1.1
	c0.1,0.2,0.2,0.3,0.3,0.5c0.7,1.3,1.4,2.7,2,4.1c2.3,5.6,3.3,11.7,2.8,17.9c3.8-18.5-6.2-37.6-24.5-44.7
	c-20.4-7.9-43.3,2.3-51.2,22.5c-1.4,3.7-2.3,7.5-2.6,11.2c0.3-1.5,0.7-3.1,1.2-4.6C53,132.8,53.2,132.2,53.4,131.6L53.4,131.6z"/>
<path class="st9" d="M105.5,103.4c-20.8-8-44.1,2.3-52.2,23s2.3,44.1,23,52.1s44.1-2.3,52.2-23S126.3,111.4,105.5,103.4z
	 M127.9,155.2c-2.9,7.4-7.8,13.5-13.9,17.8c-10.5,7.5-24.5,9.7-37.3,4.7c-10.4-4-18.1-11.9-22.1-21.3c-0.1-0.2-0.1-0.3-0.2-0.5
	c-0.8-2-1.5-4.1-2-6.3c-0.1-0.7-0.3-1.3-0.4-2c-0.4-2.6-0.6-5.2-0.5-7.9v-1.8c0.3-3.8,1.1-7.5,2.6-11.2
	c7.9-20.2,30.8-30.4,51.2-22.5c18.3,7.1,28.3,26.2,24.5,44.7c-0.3,1.3-0.6,2.6-1,4C128.5,153.6,128.2,154.4,127.9,155.2L127.9,155.2
	z"/>
<path class="st19" d="M71.9,126.5c-0.5-0.3-1.5,0.6-2.1,1.9c-0.1,0.2-0.2,0.4-0.3,0.7l1.8,1c0.1-0.2,0.3-0.5,0.4-0.7
	C72.4,128,72.4,126.7,71.9,126.5z"/>
<path class="st20" d="M80.3,144.9c0.3-1.7,0.6-2.8,0.6-2.8c0.8-0.9,1.3,0.2,1.3,0.2c-0.3,1.2-0.5,2.3-0.6,3.3l3.9,2.2
	c0.2-1.3,0.4-2.2,0.5-2.7c0-0.2,0.1-0.3,0.3-0.4c0.3-0.2,0.5-0.2,0.7,0s0.3,0.5,0.2,0.8c-0.3,1.1-0.4,2.1-0.5,3.1l9,5.2l1.6,0.9
	l3.5,2l3.9-8.6l-4-2.2c-1.5,1.3-2.9,2.9-4.2,5l-2.2-1.2c0,0,1.3-2.5,3.8-5.1l-7.8-4.2l-2.9-1.5l-2.2-1.2l-6.4-3.4l-1.6-0.9l-0.5-0.2
	l-1.7-0.9l-1-0.5c-0.5,0.7-1.2,1.2-1.6,1s-0.5-1-0.2-1.9l-1-0.5l-1.8-1l-1-0.5l-1.9,2.6l-0.5,0.7l-2.7,3.9c0,0,0.3,0.5,0.6,1.4
	c0.4,0.8,0.8,2,1.2,3.3c0.5,1.5,0.9,3.3,1.1,4.9c0.1,1.4,0.1,2.7-0.3,3.8l5.1,1c0,0,1.6-3.3,0.6-7.9c-0.2-0.8-0.5-1.7-0.9-2.7
	l2.9,1.7l2,1.1l1,0.6L80.3,144.9L80.3,144.9z"/>
<path class="st19" d="M74.7,130.4c0.6-1.3,0.6-2.5,0.1-2.7c-0.5-0.3-1.5,0.6-2.1,1.9c-0.2,0.3-0.3,0.6-0.4,1
	c-0.3,0.9-0.2,1.7,0.2,1.9c0.4,0.2,1-0.2,1.6-1C74.3,131.2,74.5,130.9,74.7,130.4L74.7,130.4L74.7,130.4z"/>
<path class="st21" d="M104.4,161.1c0,0-8.4-1.2-8.5-0.9c0,0,0.1-0.5,0.3-1.3c0.3-1,0.6-2.5,1.1-4.2l-1.6-0.9l-1.2,5l-0.8,3.2
	l10.4,0.8C105.6,162,104.4,161.1,104.4,161.1L104.4,161.1z M76.7,132.9c6-14.2,15.5-17.2,18.5-17.9c0.2,0.2,0.4,0.3,0.7,0.3
	c0.8,0.1,1.5-0.4,1.6-1.1c0.1-0.8-0.4-1.5-1.1-1.6c-0.6-0.1-1.2,0.2-1.5,0.6c-9.2,1.2-15.7,10.7-18.4,15.7l-0.6,1.2
	c-0.5,1-0.8,1.7-0.9,1.8L76.7,132.9C76.7,133,76.7,132.9,76.7,132.9z"/>
<path class="st21" d="M77.2,133.2l1.6,0.9c8.1-13.1,17.4-13.9,20.5-14.1c0.2,0.2,0.4,0.3,0.6,0.4c0.7,0.3,1.5-0.1,1.8-0.9
	c0.3-0.7-0.1-1.5-0.9-1.8c-0.6-0.2-1.2,0-1.5,0.4C86.9,118,77.6,132.5,77.2,133.2z M116.6,165.4c0,0-8.4-1.2-8.5-0.9
	c0,0.1,0.3-1.3,0.9-3.4c1.8-7,5.6-22.3,5.6-22.3c-5.8-1.9-10.6,0.4-14.1,3.3c0.6-2.2,1-4.1,1.4-5.5c0.3-1.3,0.5-2.1,0.5-2.1
	c-5.1-1.6-9.4-0.1-12.7,2.3c-0.8,0.6-1.6,1.2-2.3,1.9l2.9,1.5c4.9-3.4,9.6-3.2,9.6-3.2l-1.8,7.4c-2.4,2.6-3.8,5.1-3.8,5.1l2.2,1.2
	c1.3-2.1,2.7-3.7,4.2-5c5.5-4.8,11.4-4.6,11.4-4.6l-4.8,19.4l-1.4,5.5l10.4,0.8C117.7,166.3,116.6,165.4,116.6,165.4z M81.6,145.6
	c0.1-1.1,0.3-2.2,0.6-3.3c0,0-0.4-1.1-1.3-0.2c0,0-0.3,1.1-0.6,2.8c-0.6,3.6-0.9,9.8,2.5,12.8c0,0-0.4,0-1,0.1
	c-0.8,0.1-2,0.5-2.3,1.4c0,0-0.1,0.2-0.1,0.4c-0.2-0.2-0.6-0.8-1.1-1.8c-1.4-2.6-3.3-7.7-1.6-14.9l-1-0.6c-0.1,0.1-0.2,0.1-0.2,0.2
	c0,0-2.9,10.6,1.5,15.3c0.1,0.1,0.2,0.3,0.4,0.4c0,0-2.7,0-3.2,1.5c0,0-0.5,0.8,1.1,0.8c0,0,1.5-1.1,4.2-0.8
	c0.1,0.2,0.4,0.3,1.2,0.3c0,0,1.5-1.1,4.2-0.8c0,0-0.4-0.4-0.9-1.3C82.8,155.9,81,151.6,81.6,145.6L81.6,145.6z M88.7,158.1
	c-1.1-1.8-2.3-5-1.9-9.6c0.1-1,0.2-2,0.5-3.1c0.1-0.3,0-0.6-0.2-0.8c-0.2-0.1-0.4-0.2-0.7,0c-0.1,0.1-0.2,0.3-0.3,0.4
	c-0.1,0.5-0.3,1.5-0.5,2.7c-0.4,2.9-0.4,7.2,2.1,10.2c0.2,0.3,0.5,0.5,0.7,0.8c0,0-2.7,0-3.2,1.5c0,0-0.5,0.8,1.1,0.8
	c0,0,1.5-1.1,4.2-0.8C90.4,160.2,89.5,159.5,88.7,158.1L88.7,158.1z"/>
<g>
	<path class="st22" d="M16.2,34.2h6.7c0.9,0,1.6,0.7,1.6,1.6c0,0.9-0.7,1.6-1.6,1.6h-8.6c-0.9,0-1.6-0.7-1.6-1.6V19.3
		c0-0.9,0.7-1.6,1.6-1.6h8.3c0.9,0,1.6,0.7,1.6,1.6c0,0.9-0.7,1.6-1.6,1.6h-6.4v4.9h5.5c0.9,0,1.6,0.7,1.6,1.6
		c0,0.9-0.7,1.6-1.6,1.6h-5.5V34.2z"/>
	<path class="st22" d="M40.2,35.9c0,1-0.5,1.8-1.6,1.8c-0.9,0-1.6-0.6-1.6-1.6c-1,1-2.2,1.6-3.7,1.6c-1.8,0-3.3-0.6-4.4-1.8
		c-1.1-1.2-1.6-2.7-1.6-4.7c0-2,0.7-3.7,2-4.9c1.3-1.3,3-1.9,5-1.9c1.1,0,2,0.2,2.7,0.6v-5.8c0-0.9,0.7-1.6,1.6-1.6
		c0.9,0,1.6,0.7,1.6,1.6V35.9z M36.9,28.3c-0.8-0.5-1.6-0.8-2.5-0.8c-2,0-3.7,1.4-3.7,3.7c0,2.2,1.4,3.5,3.2,3.5
		c1.1,0,2.1-0.4,3-1.3V28.3z"/>
	<path class="st22" d="M52.1,26.1c0-0.9,0.7-1.6,1.6-1.6c0.9,0,1.6,0.7,1.6,1.6v10c0,0.9-0.7,1.6-1.6,1.6s-1.6-0.7-1.6-1.8
		c-1,1.2-2.4,1.9-4.1,1.9c-2.6,0-4.5-1.8-4.5-5.3v-6.4c0-0.9,0.7-1.6,1.6-1.6c0.9,0,1.6,0.7,1.6,1.6v5.7c0,2,0.8,2.9,2.4,2.9
		c1.1,0,2.1-0.5,2.9-1.6V26.1z"/>
	<path class="st22" d="M65.2,27.5c-0.9,0-1.8,0.3-2.5,1c-0.7,0.7-1.1,1.6-1.1,2.6c0,2.2,1.7,3.7,3.7,3.7c0.8,0,1.5-0.2,2.1-0.5
		c0.4-0.2,0.7-0.3,1.1-0.3c0.4,0,0.8,0.2,1.1,0.6c0.2,0.3,0.3,0.5,0.3,0.8c0,0.5-0.2,0.9-0.7,1.3c-1,0.8-2.4,1.2-4.1,1.2
		c-2.1,0-3.8-0.6-5.1-1.8c-1.3-1.2-1.9-2.8-1.9-4.8c0-1.9,0.6-3.5,1.9-4.8c1.2-1.3,2.8-1.9,4.7-1.9c1.5,0,2.7,0.2,3.6,0.7
		c0.7,0.3,1,0.8,1,1.4c0,0.2-0.1,0.4-0.2,0.7c-0.3,0.5-0.7,0.8-1.3,0.8c-0.3,0-0.5-0.1-0.8-0.2C66.5,27.6,65.8,27.5,65.2,27.5z"/>
	<path class="st22" d="M76.2,29.6c1.2,0,2.1,0.3,2.9,0.8v-0.4c0-2-0.7-2.9-2.4-2.9c-0.7,0-1.4,0.1-2,0.3c-0.3,0.1-0.5,0.1-0.7,0.1
		c-0.5,0-0.9-0.2-1.1-0.7c-0.1-0.2-0.1-0.3-0.1-0.5c0-0.5,0.3-1,0.9-1.2c1-0.5,2.1-0.7,3.3-0.7c3.6,0,5.1,1.8,5.1,5.3v6.5
		c0,0.8-0.6,1.4-1.4,1.4s-1.4-0.6-1.4-1.5c-0.8,1-2.1,1.5-3.8,1.5c-2.4,0-4-1.5-4-3.9C71.6,31.1,73.5,29.6,76.2,29.6z M79.1,32.5
		c-0.5-0.4-1.3-0.6-2.2-0.6c-1.2,0-2,0.6-2,1.6c0,0.9,0.8,1.5,1.8,1.5c1.1,0,1.9-0.4,2.5-1.2V32.5z"/>
	<path class="st22" d="M92.8,35.9c0,0.6-0.3,1-0.9,1.3c-0.7,0.4-1.6,0.6-2.7,0.6c-2.8,0-4-1.7-4-5.1v-9.9c0-0.9,0.7-1.6,1.6-1.6
		c0.9,0,1.6,0.7,1.6,1.6v2H91c0.9,0,1.6,0.7,1.6,1.5s-0.7,1.5-1.6,1.5h-2.5v4.6c0,1.5,0.5,2.3,1.5,2.3c0.5,0,1.3-0.1,1.5-0.1
		C92.3,34.6,92.8,35.2,92.8,35.9z"/>
	<path class="st22" d="M99.4,20.2c0,1.2-0.9,2-1.9,2c-1.2,0-2-0.8-2-2c0-1.1,0.9-1.9,2-1.9C98.5,18.3,99.4,19,99.4,20.2z M99.1,36.1
		c0,0.9-0.7,1.6-1.6,1.6c-0.9,0-1.6-0.7-1.6-1.6v-10c0-0.9,0.7-1.6,1.6-1.6c0.9,0,1.6,0.7,1.6,1.6V36.1z"/>
	<path class="st22" d="M102.4,31.1c0-2,0.7-3.5,1.9-4.8c1.3-1.2,2.9-1.9,5-1.9s3.8,0.6,5,1.9c1.3,1.3,1.9,2.9,1.9,4.8
		s-0.6,3.5-1.9,4.8c-1.3,1.3-3,1.9-5,1.9s-3.7-0.6-5-1.9C103,34.7,102.4,33.1,102.4,31.1z M109.3,34.8c2,0,3.5-1.5,3.5-3.7
		c0-2.1-1.5-3.6-3.5-3.6c-2,0-3.5,1.5-3.5,3.6C105.9,33.3,107.3,34.8,109.3,34.8z"/>
	<path class="st22" d="M122.3,26c0.9-1,2.2-1.5,3.7-1.5c3.5,0,5.2,1.8,5.2,5.5v6.1c0,0.9-0.7,1.6-1.6,1.6c-0.9,0-1.6-0.7-1.6-1.6
		v-5.5c0-2-1-3-2.9-3c-1,0-2,0.4-2.8,1.2v7.3c0,0.9-0.7,1.6-1.6,1.6c-0.9,0-1.6-0.7-1.6-1.6v-9.8c0-1.1,0.7-1.8,1.7-1.8
		C121.7,24.6,122.3,25.2,122.3,26z"/>
	<path class="st22" d="M138.4,29.6c1.2,0,2.1,0.3,2.9,0.8v-0.4c0-2-0.7-2.9-2.4-2.9c-0.7,0-1.4,0.1-2,0.3c-0.3,0.1-0.5,0.1-0.7,0.1
		c-0.5,0-0.9-0.2-1.1-0.7c-0.1-0.2-0.1-0.3-0.1-0.5c0-0.5,0.3-1,0.9-1.2c1-0.5,2.1-0.7,3.3-0.7c3.6,0,5.1,1.8,5.1,5.3v6.5
		c0,0.8-0.6,1.4-1.4,1.4c-0.8,0-1.4-0.6-1.4-1.5c-0.8,1-2.1,1.5-3.8,1.5c-2.4,0-4-1.5-4-3.9C133.7,31.1,135.7,29.6,138.4,29.6z
		 M141.3,32.5c-0.5-0.4-1.3-0.6-2.2-0.6c-1.2,0-2,0.6-2,1.6c0,0.9,0.8,1.5,1.8,1.5c1.1,0,1.9-0.4,2.5-1.2V32.5z"/>
	<path class="st22" d="M150.9,32.7c0,1.3,0.4,2,1.2,2h0.5c0.3,0,0.5,0,0.7,0.1c0.5,0.2,0.8,0.6,0.8,1.2c0,1.2-1,1.8-3.1,1.8
		c-2.2,0-3.3-1.2-3.3-3.7V19.3c0-0.9,0.7-1.6,1.6-1.6c0.9,0,1.6,0.7,1.6,1.6V32.7z"/>
	<path class="st22" d="M167,35.1c4,0,6.7,1.4,6.7,4.2s-2.7,4.2-6.6,4.2c-4,0-6.6-1.4-6.6-4.2c0-2,1.6-3.4,4.1-3.9
		c-0.1-0.3-0.2-0.6-0.2-0.9c0-0.4,0.1-0.7,0.3-0.9c-1.9-0.8-3-2.4-3-4.3c0-1.3,0.5-2.5,1.5-3.4c1-0.9,2.3-1.4,3.9-1.4
		c1.2,0,2.3,0.3,3.3,0.9l2.6-0.6c0.1,0,0.2,0,0.3,0c0.6,0,1.1,0.4,1.3,1c0,0.1,0,0.1,0,0.3c0,0.6-0.4,1.2-1,1.3l-1.3,0.3
		c0.2,0.5,0.3,1.1,0.3,1.6c0,1.3-0.5,2.4-1.5,3.3c-1,0.9-2.3,1.4-4,1.4c-0.1,0.1-0.2,0.3-0.2,0.5C166.8,34.7,166.8,34.9,167,35.1z
		 M167.1,40.8c2.4,0,3.6-0.5,3.6-1.6c0-0.9-1.3-1.6-3.6-1.6c-2.3,0-3.6,0.6-3.6,1.6C163.5,40.2,164.8,40.8,167.1,40.8z M167,31.3
		c1.4,0,2.4-0.8,2.4-2.1c0-1.2-0.9-2.2-2.4-2.2c-0.7,0-1.3,0.2-1.7,0.6C163.9,29,164.9,31.5,167,31.3z"/>
	<path class="st22" d="M180.3,29.6c1.2,0,2.1,0.3,2.9,0.8v-0.4c0-2-0.7-2.9-2.4-2.9c-0.7,0-1.4,0.1-2,0.3c-0.3,0.1-0.5,0.1-0.7,0.1
		c-0.5,0-0.9-0.2-1.1-0.7c-0.1-0.2-0.1-0.3-0.1-0.5c0-0.5,0.3-1,0.9-1.2c1-0.5,2.1-0.7,3.3-0.7c3.6,0,5.1,1.8,5.1,5.3v6.5
		c0,0.8-0.6,1.4-1.4,1.4c-0.8,0-1.4-0.6-1.4-1.5c-0.8,1-2.1,1.5-3.8,1.5c-2.4,0-4-1.5-4-3.9C175.6,31.1,177.5,29.6,180.3,29.6z
		 M183.1,32.5c-0.5-0.4-1.3-0.6-2.2-0.6c-1.2,0-2,0.6-2,1.6c0,0.9,0.8,1.5,1.8,1.5c1.1,0,1.9-0.4,2.5-1.2V32.5z"/>
	<path class="st22" d="M196.8,24.5c1.9,0,3.2,0.8,3.7,2c1-1.4,2.5-2,4.3-2c2.7,0,4.1,1.6,4.1,4.6v7c0,0.9-0.7,1.6-1.6,1.6
		c-0.9,0-1.6-0.7-1.6-1.6V30c0-1.6-0.7-2.4-2.2-2.4c-1.2,0-2.1,0.5-2.6,1.5c0,0.1,0,0.7,0,0.9v6.1c0,0.9-0.7,1.6-1.6,1.6
		c-0.9,0-1.6-0.7-1.6-1.6v-6.3c0-1.4-0.8-2.2-2.1-2.2c-1.2,0-2.1,0.5-2.7,1.4v7.2c0,0.9-0.7,1.6-1.6,1.6c-0.9,0-1.6-0.7-1.6-1.6
		v-9.8c0-1.1,0.7-1.8,1.7-1.8c0.9,0,1.6,0.7,1.6,1.6C193.8,25.1,195.1,24.5,196.8,24.5z"/>
	<path class="st22" d="M214.8,32.1c0.3,1.9,1.8,3,3.8,3c0.9,0,1.7-0.2,2.4-0.5c0.3-0.1,0.5-0.2,0.7-0.2c0.4,0,0.8,0.2,1,0.6
		c0.1,0.2,0.2,0.4,0.2,0.6c0,0.5-0.2,0.8-0.7,1.1c-1.2,0.7-2.5,1.1-4,1.1c-2.1,0-3.7-0.6-5-1.8c-1.3-1.2-1.9-2.8-1.9-4.8
		c0-1.9,0.6-3.5,1.8-4.8c1.2-1.3,2.9-1.9,4.9-1.9c1.7,0,3.1,0.5,4.3,1.6c1.2,1.1,1.8,2.5,1.8,4.3V31c-0.1,0.8-0.5,1.2-1.3,1.2H214.8
		z M220.9,29.9c0-1.6-1.1-2.7-2.9-2.7c-1.8,0-3,0.9-3.3,2.8L220.9,29.9L220.9,29.9z"/>
	<path class="st22" d="M226.4,34.5c0.3-0.3,0.6-0.5,1-0.5c0.3,0,0.6,0.1,0.9,0.3c0.9,0.5,1.8,0.8,2.9,0.8c1,0,1.7-0.4,1.7-1.2
		s-1.1-1.2-2.4-1.6c-2-0.5-4.5-1.2-4.5-4c0-2.4,2-3.9,4.7-3.9c1.5,0,2.8,0.3,3.9,1c0.5,0.3,0.7,0.7,0.7,1.1c0,0.2-0.1,0.5-0.2,0.7
		c-0.3,0.4-0.6,0.7-1.1,0.7c-0.3,0-0.5-0.1-0.8-0.2c-0.7-0.3-1.5-0.5-2.3-0.5c-0.9,0-1.6,0.5-1.6,1.1c0,1.2,2.5,1.5,4.4,2.2
		c1.4,0.5,2.4,1.6,2.4,3.3c0,2.5-2,4.1-5.2,4.1c-1.8,0-3.3-0.5-4.4-1.4c-0.4-0.3-0.5-0.7-0.5-1.1C226.1,35,226.2,34.7,226.4,34.5z"
		/>
</g>
</svg>
