<?xml version="1.0" encoding="utf-8"?>
<!-- Generator: Adobe Illustrator 20.1.0, SVG Export Plug-In . SVG Version: 6.00 Build 0)  -->
<svg version="1.1" id="Layer_1" xmlns="http://www.w3.org/2000/svg" xmlns:xlink="http://www.w3.org/1999/xlink" x="0px" y="0px"
	 viewBox="0 0 50 50" style="enable-background:new 0 0 50 50;" xml:space="preserve">
<style type="text/css">
	.st0{fill:#6FC4E2;}
	.st1{clip-path:url(#SVGID_2_);}
	.st2{fill:#0D1013;}
	.st3{clip-path:url(#SVGID_6_);}
	.st4{clip-path:url(#SVGID_7_);}
	.st5{clip-path:url(#SVGID_8_);fill:#FF5767;}
	.st6{clip-path:url(#SVGID_8_);}
	.st7{fill:#FFC500;}
	.st8{fill:#FF5767;}
	.st9{fill:#6F568E;}
	.st10{fill:#FFFFFF;}
</style>
<g>
	<path class="st0" d="M43,0H7C3.1,0,0,3.1,0,7v36c0,3.9,3.1,7,7,7h36c3.9,0,7-3.1,7-7V7C50,3.1,46.9,0,43,0z"/>
	<g>
		<g>
			<defs>
				<rect id="SVGID_1_" y="0" width="50" height="50"/>
			</defs>
			<clipPath id="SVGID_2_">
				<use xlink:href="#SVGID_1_"  style="overflow:visible;"/>
			</clipPath>
			<g class="st1">
				<g>
					<path class="st2" d="M9.6,46.3l-5.5-3.6l3.6-4.6L2.2,34l5.1-5.7L0,23.9l7-5.6L9.6,46.3z"/>
				</g>
				<g>
					<g>
						<defs>
							<path id="SVGID_3_" d="M6.7,17.4L9.5,50l24.3,0c0,0,1.1-12,1.1-13.6C35,22.9,6.7,17.4,6.7,17.4z"/>
						</defs>
						<defs>
							<path id="SVGID_4_" d="M6.7,17.4L9.5,50l24.3,0c0,0,1.1-12,1.1-13.6C35,22.9,6.7,17.4,6.7,17.4z"/>
						</defs>
						<defs>
							<path id="SVGID_5_" d="M6.7,17.4L9.5,50l24.3,0c0,0,1.1-12,1.1-13.6C35,22.9,6.7,17.4,6.7,17.4z"/>
						</defs>
						<clipPath id="SVGID_6_">
							<use xlink:href="#SVGID_3_"  style="overflow:visible;"/>
						</clipPath>
						<clipPath id="SVGID_7_" class="st3">
							<use xlink:href="#SVGID_4_"  style="overflow:visible;"/>
						</clipPath>
						<clipPath id="SVGID_8_" class="st4">
							<use xlink:href="#SVGID_5_"  style="overflow:visible;"/>
						</clipPath>
						<path class="st5" d="M6.7,17.4L9.5,50l24.3,0c0,0,1.1-12,1.1-13.6C35,22.9,6.7,17.4,6.7,17.4z"/>
						<g class="st6">
							<path class="st7" d="M36.6,50L37,36.7c0,0,2-12-11.2-12.4c-9.6-0.3-12,7.3-7.1,8.8L19.6,50L36.6,50z"/>
						</g>
					</g>
					<g>
						<path class="st8" d="M31.6,39.6c0,0,3,0.1,6.1,0c3.4-0.1,6.7-0.8,6.8-0.5c0,0,1-6,0.3-14.6s-8.9-8.7-21.6-8
							c-4.8,0.3-16.4,0.8-16.4,0.8s1.9,6,5,12.2C16.6,39.3,31.6,39.6,31.6,39.6z"/>
					</g>
					<g>
						<g>
							<path class="st8" d="M41.2,13.9c1.9,0.5,2.9,2.9,2.1,5.4c-0.7,2.5-2.9,4.2-4.8,3.7c-1.9-0.5-2.9-2.9-2.1-5.4
								C37.2,15.1,39.3,13.4,41.2,13.9z"/>
						</g>
						<g>
							<path class="st2" d="M41.2,16.2c0.7,0.3,0.8,1.5,0.4,2.5c-0.5,1.1-1.4,1.7-2,1.4c-0.7-0.3-0.8-1.5-0.4-2.5
								C39.6,16.5,40.5,15.9,41.2,16.2z"/>
						</g>
						<g>
							<path class="st8" d="M47.7,17.8c1.4,1,1.4,3.3-0.2,5.2c-1.5,1.9-4,2.6-5.4,1.7c-1.4-1-1.4-3.3,0.2-5.2
								C43.8,17.6,46.2,16.8,47.7,17.8z"/>
						</g>
						<g>
							<path class="st2" d="M46.6,19.4c0.5,0.4,0.4,1.4-0.3,2.1s-1.7,1-2.2,0.5c-0.5-0.4-0.4-1.4,0.3-2.1
								C45.1,19.3,46.1,19,46.6,19.4z"/>
						</g>
					</g>
					<g>
						<g>
							<path class="st2" d="M11.4,1.8c1.2-0.1,2,0.1,2.3,0.9c0.2,0.7-0.6,1.5-1.3,1.8c-0.7,0.2-2.3,1.9-2.8,2.3
								c-0.4,0.4-1.3,0.4-1.8,0c-0.3-0.5-0.2-1.3,0-1.9C8.4,3.5,9.7,2,11.4,1.8z"/>
						</g>
						<g>
							<path class="st2" d="M24.7,1.9c-1.2,0-2,0.4-2.2,1.1c-0.1,0.8,0.7,1.5,1.4,1.6c0.7,0.2,2.5,1.6,3,2c0.5,0.3,1.4,0.2,1.8-0.2
								c0.4-0.4,0.3-1.2,0-1.8C27.9,3.3,26.4,1.9,24.7,1.9z"/>
						</g>
						<g>
							<path class="st9" d="M12.6,7.3c3.9,0,7,3.1,7,7s-3.1,7-7,7s-7-3.1-7-7S8.7,7.3,12.6,7.3z"/>
						</g>
						<g>
							<path class="st9" d="M23.1,6.7c3.9,0,7,3.1,7,7s-3.1,7-7,7s-7-3.1-7-7S19.2,6.7,23.1,6.7z"/>
						</g>
						<g>
							<path class="st10" d="M12.6,9.8c2.5,0,4.5,2,4.5,4.5s-2,4.5-4.5,4.5s-4.5-2-4.5-4.5S10.1,9.8,12.6,9.8z"/>
						</g>
						<g>
							<path class="st2" d="M12.6,12.2c1.2,0,2.1,1,2.1,2.1s-1,2.1-2.1,2.1s-2.1-1-2.1-2.1S11.4,12.2,12.6,12.2z"/>
						</g>
						<g>
							<path class="st10" d="M23.1,9.2c2.5,0,4.5,2,4.5,4.5s-2,4.5-4.5,4.5s-4.5-2-4.5-4.5S20.6,9.2,23.1,9.2z"/>
						</g>
						<g>
							<path class="st2" d="M23.1,11.6c1.2,0,2.1,1,2.1,2.1c0,1.2-1,2.1-2.1,2.1s-2.1-1-2.1-2.1C21,12.5,21.9,11.6,23.1,11.6z"/>
						</g>
					</g>
					<g>
						<path class="st10" d="M34.8,39.6c-2.9,0-7.7-0.6-12-2c-3.4-1.2-7.6-3.3-8.5-6.9c-0.1-0.3-0.4-0.5-0.7-0.4s-0.5,0.4-0.4,0.7
							c1.9,7.3,15.1,9.7,21.5,9.7C34.8,40.7,34.9,39.7,34.8,39.6z"/>
					</g>
					<polygon class="st10" points="14.6,33.7 14.3,38.9 19.7,37.5 21.5,42.2 26.4,39.7 29.2,43.9 33.2,40.5 31.8,40 24.8,38.7 
						19.3,36.8 					"/>
				</g>
			</g>
		</g>
	</g>
</g>
</svg>
