<?xml version="1.0" encoding="utf-8"?>
<!-- Generator: Adobe Illustrator 21.0.0, SVG Export Plug-In . SVG Version: 6.00 Build 0)  -->
<svg version="1.1" id="Layer_1" xmlns="http://www.w3.org/2000/svg" xmlns:xlink="http://www.w3.org/1999/xlink" x="0px" y="0px"
	 viewBox="0 0 632 43" style="enable-background:new 0 0 632 43;" xml:space="preserve">
<path d="M545.2414551,31.499979c1-1.1000004,2.4000244-1.7000008,4.0999756-1.7000008
	c1.7000122,0,3.0999756,0.6000004,4.0999756,1.7000008s1.5,2.4000034,1.5,4.0000019s-0.5,3-1.5,4
	c-1,1.0999985-2.4000244,1.5999985-4.2000122,1.5999985s-3.2000122-0.5-4.0999756-1.5999985c-1-1.0999985-1.5-2.4000015-1.5-4
	C543.7414551,33.8999825,544.2414551,32.5999794,545.2414551,31.499979z"/>
<path d="M48.4414864,11.7999811c-1.2000008-2.9000006-3-5.1000004-5.2000008-6.7000003s-4.7000008-2.7-7.4000015-3.4000001
	s-5.7000027-1.0999999-9.1000023-1.0999999l-14.699996,0.1999997c-1.5,0-2.6000004,0.4-3.3999996,1.2999998
	C7.841485,2.9999804,7.4414849,4.1999803,7.4414849,5.4999804v30.7999992c0,1.4000015,0.4000001,2.5,1.2000003,3.4000015
	s1.8999996,1.2999992,3.4000006,1.2999992l14.8000002-0.0999985c7.0000019,0,12.7000027-1.7000008,17.0000019-5.0999985
	c4.2999992-3.4000015,6.4000015-7.3000011,6.4000015-14.9000015C50.3414879,16.999979,49.7414856,14.5999813,48.4414864,11.7999811z
	 M27.2414837,31.1999798h-9.7000008c-0.5,0-1-0.3999996-1-1V10.3999805c0-0.1999998,0.2000008-0.3999996,0.3999996-0.3999996
	h10.1000004c9.7000027,0,14.5000019,2.8999996,14.5000019,10.8999977
	C41.6414871,28.7999783,36.8414879,31.1999798,27.2414837,31.1999798z"/>
<path d="M243.1414795,6.2999806c-4.6000061-3.9000001-10.6000061-5.8000002-17.6999969-5.8000002
	c-7.1000061,0-13.1000061,2-17.6000061,6c-4.6000061,4.0000005-7,9-7,14.9999981c0,6.2000008,2.3000031,11.3000011,7,15.2000027
	c4.6000061,3.9000015,10.5,5.7999992,17.6000061,5.7999992c7,0,13-2,17.6000061-5.9000015c4.6999969-4,7-9.0000019,7-15.1000023
	C250.1414795,15.2999811,247.8414764,10.1999807,243.1414795,6.2999806z M239.1414795,21.499979
	c0,4.1000004-1,6.8999996-3.3000031,9.1000004s-5.3999939,3.1000023-10.3999939,3.1000023c-4.3999939,0-7.5-1-10-3.2000027
	s-3.6000061-5-3.6000061-9c0-4.2000008,1.1000061-6.9999981,3.5-9.0999985s5.5-3.1000004,10.1000061-3.1000004
	s7.6999969,1,10.1000061,3.1000004C238.0414886,14.4999809,239.1414795,17.2999783,239.1414795,21.499979z"/>
<path d="M340.4414978,31.999979L340.4414978,31.999979h-19.1000061c-0.5,0-0.8999939-0.3999996-0.8999939-0.8999996v-27
	c0-2-2.2000122-3.5-4.7999878-3.5c-2.7999878,0-4.8999939,1.5-4.8999939,3.5v33.4999962c0,1.9000015,2,3.5,4.7999878,3.5h24.8999939
	l0,0c1.2000122-0.0999985,2.2000122-0.5,3-1.2000008c0.8999939-0.7999992,1.2999878-1.9000015,1.2999878-3.4000015
	s-0.3999939-2.5999947-1.2999878-3.3999977C342.5415039,32.3999825,341.5415039,32.0999794,340.4414978,31.999979z"/>
<path d="M571.043457,3.4883716c-0.0165405-0.0601196-0.0496216-0.1142578-0.0702515-0.1730957
	c-0.059082-0.1702881-0.1218872-0.3393555-0.2133179-0.4990234c-0.0117798-0.0201416-0.0289307-0.0376587-0.0411987-0.0575562
	c-0.723877-1.2007446-2.3320923-2.0587158-4.3773804-2.0587158c-2.7999878,0-4.8999634,1.5-4.8999634,3.4999998v6.5000005v27
	c0,0.2432251,0.03479,0.4810791,0.0978394,0.711731c0.0164795,0.0598145,0.0493774,0.1136475,0.0698853,0.1721802
	c0.059082,0.1706543,0.1221313,0.3397827,0.2136841,0.4998169c0.0117798,0.0201416,0.0289307,0.0376587,0.0411987,0.0575562
	c0.723877,1.2007446,2.3320923,2.0587158,4.3773804,2.0587158c2.7999878,0,4.8999634-1.5,4.8999634-3.5v-6.5000019v-27
	C571.1412964,3.9567554,571.1065063,3.7190235,571.043457,3.4883716z"/>
<path d="M382.14151,10.5999813c1.3999939,0,2.5-0.3999996,3.3999939-1.1999998s1.2999878-1.9000006,1.2999878-3.3000007
	c0-1.5-0.3999939-2.5999999-1.2999878-3.4000001s-2-1.2-3.3999939-1.2h-27.2000122c-2.3999939,0-4.3999939,1.3999999-4.3999939,3.2
	v33.7000008c0,1.7999992,2,3.2000008,4.3999939,3.2000008H382.14151c1.3999939,0,2.5-0.4000015,3.3999939-1.2000008
	s1.2999878-1.9000015,1.2999878-3.2999992c0-1.5-0.3999939-2.5999985-1.2999878-3.4000015
	c-0.8999939-0.7999992-2-1.2000008-3.3999939-1.2000008h-21.6000061c-0.2000122,0-0.2999878-0.0999985-0.2999878-0.2999992
	V26.499979c0-0.2000008,0.1000061-0.2999992,0.2999878-0.2999992h14.5h3.1000061c1.2000122-0.1000004,2.2000122-0.5,3-1.2000008
	c0.8999939-0.7999992,1.2999878-1.8999996,1.2999878-3.3999996s-0.3999939-2.6000004-1.2999878-3.3999996
	c-0.7999878-0.7000008-1.7999878-1.1000004-3-1.2000008h-3.1000061h-14.5c-0.2000122,0-0.2999878-0.1000004-0.2999878-0.2999992
	v-5.7999983c0-0.1999998,0.1000061-0.3000002,0.2999878-0.3000002H382.14151z"/>
<path d="M532.6414795,0.8999805c-2.5999756,0-4.5999756,1.3999999-4.5999756,3.1999998v23.5999985
	c0,0.3999996-0.5,0.6000004-0.7999878,0.2999992L499.64151,2.7999804c-1.3999939-1.3-3.1000061-1.8999999-4.8999939-1.8999999
	c-2.6000061,0-4.6000061,1.3999999-4.6000061,3.1999998v33.9000015c0,1.7000008,2,3.2000008,4.6000061,3.2000008
	c2.5,0,4.5-1.4000015,4.5-3.2000008V13.2999811l28.3999634,25.7000008c1.5,1.4000015,3.2000122,2.0999985,5.2000122,2.0999985
	c2.5,0,4.2999878-1.4000015,4.2999878-3.2000008V3.9999804C537.1414795,2.2999804,535.2414551,0.8999805,532.6414795,0.8999805z"/>
<path d="M621.5931396,0.8999805c-2.5999756,0-4.5999756,1.3999999-4.5999756,3.1999998v23.5999985
	c0,0.3999996-0.5,0.6000004-0.7999878,0.2999992L588.5931396,2.7999804c-1.4000244-1.3-3.1000366-1.8999999-4.9000244-1.8999999
	c-2.5999756,0-4.5999756,1.3999999-4.5999756,3.1999998v33.9000015c0,1.7000008,2,3.2000008,4.5999756,3.2000008
	c2.5,0,4.5-1.4000015,4.5-3.2000008V13.2999811l28.4000244,25.7000008c1.5,1.4000015,3.2000122,2.0999985,5.2000122,2.0999985
	c2.5,0,4.2999878-1.4000015,4.2999878-3.2000008V3.9999804C626.0931396,2.2999804,624.1931152,0.8999805,621.5931396,0.8999805z"/>
<path d="M299.4414978,0.8999805c-2.6000061,0-4.6000061,1.3999999-4.6000061,3.1999998v23.5999985
	c0,0.3999996-0.5,0.6000004-0.7999878,0.2999992L266.4414978,2.7999804c-1.3999939-1.3-3.1000061-1.8999999-4.8999939-1.8999999
	c-2.6000061,0-4.6000061,1.3-4.6000061,3.0999999v33.9000015c0,1.7000008,2,3.2000008,4.6000061,3.2000008
	c2.5,0,4.5-1.4000015,4.5-3.2000008V13.2999811l28.3999939,25.7000008c1.5,1.4000015,3.2000122,2.0999985,5.2000122,2.0999985
	c2.5,0,4.2999878-1.4000015,4.2999878-3.2000008V3.9999804C303.9414978,2.2999804,301.9414978,0.8999805,299.4414978,0.8999805z"/>
<path d="M190.6414795,20.3999786h-9.8999939c-2.6999969,0-4.8000031,1.3999996-4.8000031,3.2000008
	c0,1.8999996,2.1000061,3.2999992,4.8000031,3.2999992h4.8000031v5.5000038c-3.6000061,1.2000008-7.3999939,1.7000008-10,1.7000008
	c-4.1000061,0-7.3999939-1.0999985-9.8999939-3.3000011s-3.8000031-5.2000008-3.8000031-9
	c0-4,1.1999969-7.1999979,3.6000061-9.4999981c2.3999939-2.3000002,5.6999969-3.3999996,9.8999939-3.3999996
	c2.5,0,6.6000061,0.6999998,10.3000031,1.5c3.6000061,0.8000002,6,0,7.1999969-2
	c1.3000031-2.2000003,0.3999939-4.0000005-2.6999969-5.5c-3.1999969-1.5-7.8999939-2.3-14.1000061-2.3
	c-8,0-14.3000031,1.8999999-19,5.6999993c-4.6000061,3.8000007-6.8999939,9-6.8999939,15.4999981
	s2.1999969,11.6000004,6.6999969,15.2000027c4.3999939,3.5999985,10.6000061,5.4000015,18.5,5.4000015
	c7.1000061,0,12.6999969-1.2999992,16.8999939-3.7999992c2.1999969-1.4000015,3.1999969-2.7999992,3-4.2000008
	c0-0.0999985,0-0.0999985,0-0.2000008V23.5999794C195.5414886,21.7999783,193.3414764,20.3999786,190.6414795,20.3999786z"/>
<path d="M94.1414795,21.5999794c1.6999969-2.1000004,2.5999985-4.6000004,2.5999985-7.5999985
	c0-8.8000011-6.5-13.1999998-19.5999985-13.1999998C72.541481,0.7999805,64.9414825,1.0999805,61.9414864,1.5999805
	c-2.7999992,0.4999999-4.2000008,1.9999999-4.2000008,4.4000001v31.2000008c0,1.0999985,0.4000015,2.0999985,1.2000008,2.7999992
	s2.2999992,1.0999985,3.7999992,1.0999985c1.3999939,0,2.2999954-0.4000015,3.0999985-1.0999985
	c0.8000031-0.7000008,1.1999969-1.7000008,1.1999969-2.7999992v-9.9000015
	c1.4000015,0.2000008,8.6999969,0.2000008,9.4000015,0.1000004l9.8000031,11.0000019
	c2.0999985,2.5,5.0999985,3.5,7.6999969,2.2000008c3.1999969-1.5999985,2.5999985-4.5,1.0999985-6.2000008l-8.3000031-8.2000027
	C90.041481,25.2999783,92.4414825,23.6999798,94.1414795,21.5999794z M84.541481,18.6999798
	c-1.8000031,0.8999996-4.5,1.2999992-8.0999985,1.2999992c-1.8000031,0-8-0.1000004-9.5-0.2000008V9.5999813
	c2.4000015-0.1999998,8.8000031-0.3000002,10-0.3000002c6.8000031,0,10.1999969,1.6999998,10.1999969,5.1999998
	C87.1414795,16.3999786,86.3414841,17.8999786,84.541481,18.6999798z"/>
<path d="M437.14151,35.7999802l-5.6000061-10.1000023L420.2414856,4.4999804c-1.1000061-2-2.8999939-3-5.1000061-3
	c-2.2999878,0-4.1000061,1-5.2999878,3l-11.2999878,21.1999989l-5.6000061,10.1000004c-0.8999939,2-0.7000122,4.9000015,3,5.4000015
	c3,0.5,5.6000061-1.2000008,6.8999939-4.2000008l2.7999878-5.5000019h18.7000122l2.7999878,5.5000019
	c1.2999878,3,3.8999939,4.7000008,6.8999939,4.2000008C437.8414917,40.5999794,438.0415039,37.7999802,437.14151,35.7999802z
	 M409.3414917,23.499979l5.2999878-10.2999983c0.1000061-0.1999998,0.3999939-0.1999998,0.5,0l5.2000122,10.2999983
	c0.1000061,0.2000008,0,0.3999996-0.2999878,0.3999996h-10.5C409.3414917,23.8999786,409.2414856,23.6999798,409.3414917,23.499979z
	"/>
<path d="M146.4414825,35.7999802l-5.6000061-10.1000023L129.5414886,4.4999804c-1.1000061-2-2.9000015-3-5.0999985-3
	c-2.3000031,0-4.0999985,1-5.3000031,3l-11.2000046,21.1999989l-5.5999985,10.1000042c-0.9000015,2-0.6999969,4.9000015,3,5.4000015
	c3,0.5,5.5999985-1.2000008,6.9000015-4.2000008l2.8000031-5.5000019h18.6999969l2.8000031,5.5000019
	c1.3000031,3,3.8999939,4.7000008,6.8999939,4.2000008C147.1414795,40.5999794,147.4414825,37.7999802,146.4414825,35.7999802z
	 M118.6414795,23.499979l5.3000031-10.2999983c0.0999985-0.1999998,0.4000015-0.1999998,0.5,0l5.1999969,10.2999983
	c0.1000061,0.2000008,0,0.3999996-0.3000031,0.3999996h-10.3999939
	C118.7414856,23.8999786,118.541481,23.6999798,118.6414795,23.499979z"/>
<path d="M480.2414856,21.5999794c1.7000122-2.1000004,2.6000061-4.6000004,2.6000061-7.5999985
	c0-8.8000011-6.5-13.1999998-19.6000061-13.1999998c-4.5999756-0.1000004-12.2999878,0.1999996-15.2999878,0.7999996
	c-2.7999878,0.4999999-4.2000122,1.9999999-4.2000122,4.4000001v31.2000008c0,1.0999985,0.3999939,2.0999985,1.2000122,2.7999992
	c0.7999878,0.7000008,2.2999878,1.0999985,3.7999878,1.0999985c1.3999939,0,2.2999878-0.4000015,3.1000061-1.0999985
	c0.7999878-0.7000008,1.2000122-1.7000008,1.2000122-2.7999992v-9.9000015
	c1.3999939,0.2000008,8.7000122,0.2000008,9.3999939,0.1000004l9.7999878,11.0000019
	c2.1000061,2.5,5.1000061,3.5,7.7000122,2.2000008c3.2000122-1.5999985,2.6000061-4.5,1.1000061-6.2000008l-8.2999878-8.2000027
	C476.14151,25.2999783,478.5415039,23.6999798,480.2414856,21.5999794z M470.64151,18.6999798
	c-1.7999878,0.8999996-4.5,1.2999992-8.1000061,1.2999992c-1.7999878,0-8-0.1000004-9.5-0.2000008V9.5999813
	c2.3999939-0.1999998,8.7999878-0.3000002,10-0.3000002c6.7999878,0,10.2000122,1.6999998,10.2000122,5.1999998
	C473.3414917,16.3999786,472.4414978,17.8999786,470.64151,18.6999798z"/>
</svg>
