<?xml version="1.0" encoding="UTF-8" standalone="no"?>
<svg
   xmlns:dc="http://purl.org/dc/elements/1.1/"
   xmlns:cc="http://creativecommons.org/ns#"
   xmlns:rdf="http://www.w3.org/1999/02/22-rdf-syntax-ns#"
   xmlns:svg="http://www.w3.org/2000/svg"
   xmlns="http://www.w3.org/2000/svg"
   viewBox="0 0 62.5 62.5"
   height="62.5"
   width="62.5"
   xml:space="preserve"
   version="1.1"
   id="svg2"><metadata
     id="metadata8"><rdf:RDF><cc:Work
         rdf:about=""><dc:format>image/svg+xml</dc:format><dc:type
           rdf:resource="http://purl.org/dc/dcmitype/StillImage" /></cc:Work></rdf:RDF></metadata><defs
     id="defs6" /><g
     transform="matrix(1.25,0,0,-1.25,0,62.5)"
     id="g10"><g
       transform="scale(0.1,0.1)"
       id="g12"><path
         id="path14"
         style="fill:#e9303d;fill-opacity:1;fill-rule:nonzero;stroke:none"
         d="m 417.992,417.992 c 92.778,-92.781 92.778,-243.203 0,-335.9842 -92.781,-92.7773 -243.203,-92.7773 -335.9842,0 -92.7773,92.7812 -92.7773,243.2032 0,335.9842 92.7812,92.781 243.2032,92.781 335.9842,0" /><path
         id="path16"
         style="fill:#ffffff;fill-opacity:1;fill-rule:nonzero;stroke:none"
         d="M 364.727,172.484 172.48,364.73 c -10.214,10.215 -26.777,10.215 -36.992,0 -10.215,-10.214 -10.215,-26.777 0,-36.992 L 327.734,135.492 c 10.215,-10.215 26.778,-10.215 36.993,0 10.214,10.215 10.214,26.778 0,36.992" /><path
         id="path18"
         style="fill:#ffffff;fill-opacity:1;fill-rule:nonzero;stroke:none"
         d="M 327.734,364.73 135.777,172.777 c -10.211,-10.218 -10.211,-26.777 0,-36.996 10.219,-10.215 26.782,-10.215 36.996,0 l 191.954,191.957 c 10.214,10.215 10.214,26.778 0,36.992 -10.215,10.215 -26.778,10.215 -36.993,0" /></g></g></svg>