<svg xmlns="http://www.w3.org/2000/svg" id="Layer_1" width="250" height="200" xmlns:xlink="http://www.w3.org/1999/xlink" viewBox="0 0 250 200">
  <style>
    .st0{fill:#FFFFFF;} .st1{fill:#CDE4C1;} .st2{opacity:0.75;} .st3{opacity:0.43;clip-path:url(#SVGID_2_);} .st4{fill:#633F25;} .st5{fill:#C64D42;} .st6{fill:#3E4958;} .st7{opacity:0.25;fill:#010101;enable-background:new ;} .st8{fill:#886F31;} .st9{opacity:0.25;} .st10{fill:#4C5159;} .st11{opacity:0.25;fill:#4C5159;enable-background:new ;} .st12{fill:#D0A138;} .st13{fill:#010101;} .st14{fill:#EE5969;stroke:#D9495B;stroke-width:0.302;stroke-linecap:round;stroke-miterlimit:10;} .st15{fill:#BB7F34;} .st16{fill:#E6B24A;} .st17{fill:#EDB959;} .st18{fill:#D9495B;} .st19{opacity:0.36;fill:#2C723C;enable-background:new ;} .st20{fill:none;stroke:#BB7F34;stroke-linejoin:round;stroke-miterlimit:10;} .st21{fill:#81323D;} .st22{fill:#341811;} .st23{fill:#183B61;} .st24{fill:#081D35;} .st25{fill:#F6B832;} .st26{fill:#FAD16F;} .st27{fill:#99A542;} .st28{fill:#729172;} .st29{fill:#6F588D;}
  </style>
  <path d="M239.5 200h-229C4.7 200 0 195.300003 0 189.5v-179C0 4.7 4.7 0 10.5 0h228.899994c5.800003 0 10.5 4.7 10.5 10.5v178.899994C250 195.300003 245.300003 200 239.5 200z" class="st0"/>
  <path d="M10.5 200h228.899994c5.800003 0 10.5-4.699997 10.5-10.5v-139H0v139c0 5.800003 4.7 10.5 10.5 10.5z" class="st1"/>
  <g class="st2">
    <defs>
      <path id="SVGID_1_" d="M10.5 200h228.899994c5.800003 0 10.5-4.699997 10.5-10.5v-139H0v139c0 5.800003 4.7 10.5 10.5 10.5z"/>
    </defs>
    <clipPath id="SVGID_2_">
      <use xlink:href="#SVGID_1_" overflow="visible"/>
    </clipPath>
    <g class="st3">
      <ellipse cx="133.399994" cy="31.599993" class="st0" rx="6.800003" ry="15.199999"/>
      <ellipse cx="133.399994" cy="67.299995" class="st0" rx="6.800003" ry="15.199997"/>
      <ellipse cx="133.399994" cy="102.899994" class="st0" rx="6.800003" ry="15.199997"/>
      <ellipse cx="133.399994" cy="138.5" class="st0" rx="6.800003" ry="15.199997"/>
      <ellipse cx="133.399994" cy="174.199997" class="st0" rx="6.800003" ry="15.199997"/>
      <ellipse cx="133.399994" cy="209.800003" class="st0" rx="6.800003" ry="15.199997"/>
      <ellipse cx="153.5" cy="14.399993" class="st0" rx="6.800003" ry="15.199998"/>
      <ellipse cx="153.5" cy="49.999992" class="st0" rx="6.800003" ry="15.199997"/>
      <ellipse cx="153.5" cy="85.699989" class="st0" rx="6.800003" ry="15.199997"/>
      <ellipse cx="153.5" cy="121.299995" class="st0" rx="6.800003" ry="15.200003"/>
      <ellipse cx="153.5" cy="157" class="st0" rx="6.800003" ry="15.199997"/>
      <ellipse cx="153.5" cy="192.600006" class="st0" rx="6.800003" ry="15.199997"/>
      <ellipse cx="175.199997" cy="31.599993" class="st0" rx="6.800003" ry="15.199999"/>
      <ellipse cx="175.199997" cy="67.299995" class="st0" rx="6.800003" ry="15.199997"/>
      <ellipse cx="175.199997" cy="102.899994" class="st0" rx="6.800003" ry="15.199997"/>
      <ellipse cx="175.199997" cy="138.5" class="st0" rx="6.800003" ry="15.199997"/>
      <ellipse cx="175.199997" cy="174.199997" class="st0" rx="6.800003" ry="15.199997"/>
      <ellipse cx="175.199997" cy="209.800003" class="st0" rx="6.800003" ry="15.199997"/>
      <ellipse cx="195.300003" cy="14.399993" class="st0" rx="6.800003" ry="15.199998"/>
      <ellipse cx="195.300003" cy="49.999992" class="st0" rx="6.800003" ry="15.199997"/>
      <ellipse cx="195.300003" cy="85.699989" class="st0" rx="6.800003" ry="15.199997"/>
      <ellipse cx="195.300003" cy="121.299995" class="st0" rx="6.800003" ry="15.200003"/>
      <ellipse cx="195.300003" cy="157" class="st0" rx="6.800003" ry="15.199997"/>
      <ellipse cx="195.300003" cy="192.600006" class="st0" rx="6.800003" ry="15.199997"/>
      <ellipse cx="217.100006" cy="31.599993" class="st0" rx="6.800003" ry="15.199999"/>
      <ellipse cx="217.100006" cy="67.299995" class="st0" rx="6.800003" ry="15.199997"/>
      <ellipse cx="217.100006" cy="102.899994" class="st0" rx="6.800003" ry="15.199997"/>
      <ellipse cx="217.100006" cy="138.5" class="st0" rx="6.800003" ry="15.199997"/>
      <ellipse cx="217.100006" cy="174.199997" class="st0" rx="6.800003" ry="15.199997"/>
      <ellipse cx="217.100006" cy="209.800003" class="st0" rx="6.800003" ry="15.199997"/>
      <ellipse cx="237.100006" cy="14.399993" class="st0" rx="6.800003" ry="15.199998"/>
      <ellipse cx="237.100006" cy="49.999992" class="st0" rx="6.800003" ry="15.199997"/>
      <ellipse cx="237.100006" cy="85.699989" class="st0" rx="6.800003" ry="15.199997"/>
      <ellipse cx="237.100006" cy="121.299995" class="st0" rx="6.800003" ry="15.200003"/>
      <ellipse cx="237.100006" cy="157" class="st0" rx="6.800003" ry="15.199997"/>
      <ellipse cx="237.100006" cy="192.600006" class="st0" rx="6.800003" ry="15.199997"/>
      <ellipse cx="10.4" cy="31.599993" class="st0" rx="6.800001" ry="15.199999"/>
      <ellipse cx="10.4" cy="67.299995" class="st0" rx="6.800001" ry="15.199997"/>
      <ellipse cx="10.4" cy="102.899994" class="st0" rx="6.800001" ry="15.199997"/>
      <ellipse cx="10.4" cy="138.5" class="st0" rx="6.800001" ry="15.199997"/>
      <ellipse cx="10.4" cy="174.199997" class="st0" rx="6.800001" ry="15.199997"/>
      <ellipse cx="10.4" cy="209.800003" class="st0" rx="6.800001" ry="15.199997"/>
      <ellipse cx="30.5" cy="14.399993" class="st0" rx="6.799999" ry="15.199998"/>
      <ellipse cx="30.5" cy="49.999992" class="st0" rx="6.799999" ry="15.199997"/>
      <ellipse cx="30.5" cy="85.699989" class="st0" rx="6.799999" ry="15.199997"/>
      <ellipse cx="30.5" cy="121.299995" class="st0" rx="6.799999" ry="15.200003"/>
      <ellipse cx="30.5" cy="157" class="st0" rx="6.799999" ry="15.199997"/>
      <ellipse cx="30.5" cy="192.600006" class="st0" rx="6.799999" ry="15.199997"/>
      <ellipse cx="52.299999" cy="31.599993" class="st0" rx="6.799999" ry="15.199999"/>
      <ellipse cx="52.299999" cy="67.299995" class="st0" rx="6.799999" ry="15.199997"/>
      <ellipse cx="52.299999" cy="102.899994" class="st0" rx="6.799999" ry="15.199997"/>
      <ellipse cx="52.299999" cy="138.5" class="st0" rx="6.799999" ry="15.199997"/>
      <ellipse cx="52.299999" cy="174.199997" class="st0" rx="6.799999" ry="15.199997"/>
      <ellipse cx="52.299999" cy="209.800003" class="st0" rx="6.799999" ry="15.199997"/>
      <ellipse cx="72.300003" cy="14.399993" class="st0" rx="6.800003" ry="15.199998"/>
      <ellipse cx="72.300003" cy="49.999992" class="st0" rx="6.800003" ry="15.199997"/>
      <ellipse cx="72.300003" cy="85.699989" class="st0" rx="6.800003" ry="15.199997"/>
      <ellipse cx="72.300003" cy="121.299995" class="st0" rx="6.800003" ry="15.200003"/>
      <ellipse cx="72.300003" cy="157" class="st0" rx="6.800003" ry="15.199997"/>
      <ellipse cx="72.300003" cy="192.600006" class="st0" rx="6.800003" ry="15.199997"/>
      <ellipse cx="94.099998" cy="31.599993" class="st0" rx="6.800003" ry="15.199999"/>
      <ellipse cx="94.099998" cy="67.299995" class="st0" rx="6.800003" ry="15.199997"/>
      <ellipse cx="94.099998" cy="102.899994" class="st0" rx="6.800003" ry="15.199997"/>
      <ellipse cx="94.099998" cy="138.5" class="st0" rx="6.800003" ry="15.199997"/>
      <ellipse cx="94.099998" cy="174.199997" class="st0" rx="6.800003" ry="15.199997"/>
      <ellipse cx="94.099998" cy="209.800003" class="st0" rx="6.800003" ry="15.199997"/>
      <ellipse cx="114.199997" cy="14.399993" class="st0" rx="6.800003" ry="15.199998"/>
      <ellipse cx="114.199997" cy="49.999992" class="st0" rx="6.800003" ry="15.199997"/>
      <ellipse cx="114.199997" cy="85.699989" class="st0" rx="6.800003" ry="15.199997"/>
      <ellipse cx="114.199997" cy="121.299995" class="st0" rx="6.800003" ry="15.200003"/>
      <ellipse cx="114.199997" cy="157" class="st0" rx="6.800003" ry="15.199997"/>
      <ellipse cx="114.199997" cy="192.600006" class="st0" rx="6.800003" ry="15.199997"/>
    </g>
  </g>
  <path d="M14.9 65.999992h46v62.100014h-46z" class="st0"/>
  <path d="M63.700001 130.600006H12.3V63.599998h51.299999v67.000008h.100002zM17.1 125.799995h41.800003v-57.5H17.1v57.5z" class="st4"/>
  <circle cx="47.700001" cy="114.699989" r="5.5" class="st5"/>
  <path d="M37.099998 112.799995c-.200001-.099998-.400002-.199997-.599998 0-.200001.099998-.200001.300003-.200001.5 0 .5.200001.900002.299999 1.400002 0 .199997.099998.400002-.099998.599998-.200001.099998-.400002.099998-.599998.099998-.5 0-1 0-1.400002-.099998-.5-.099998-1-.300003-1.599998-.5-.200001-.099998-.299999.199997-.200001.300003.900001.400002 1.799999.699997 2.799999.699997.200001 0 .5 0 .700001-.099998.200001 0 .400002-.099998.5-.199997.200001-.199997.200001-.400002.099998-.599998 0-.300003-.099998-.5-.200001-.699997-.099998-.300003-.099998-.5-.200001-.800003 0-.099998 0-.300003.099998-.300003.099998-.099998.299999 0 .400002.099998.300004-.000008.400002-.300003.200001-.400002z" class="st6"/>
  <path d="M34.799999 113.499992c-.099998-.300003 0-.5.200001-.699997s.5-.300003.799999-.300003c.599998 0 1.099998.300003 1.599998.699997.200001.199997.400002.400002.599998.599998s.299999.5.299999.800003c0 .599998-.700001.800003-1.200001.900002-.299999.099998-.700001.199997-1.099998.199997h-.5c-.099998 0-.299999 0-.400002-.099998v.199997c.099998-.099998.200001-.199997.299999-.199997.200001-.099998.299999-.099998.5-.099998.299999 0 .599998 0 .799999.199997.099998-.099998.099998-.099998.200001-.199997-.099998 0-.099998-.199997-.099998-.199997 0-.099998.200001-.199997.299999-.300003.299999-.099998.599998-.099998.900002 0 .099998 0 .200001 0 .200001-.099998.099998-.199997 0-.400002 0-.599998V114h-.099998l.099998.099998s.099998.099998.200001.099998h.199996s.099998 0 0 0c.099998.099998.099998.199997.200001.300003.099998 0 .200001 0 .200001-.099998s.099998-.199997.099998-.300003V114l.099998.099998.099998.099998c.099998 0 .200001.099998.299999 0l.099998-.099998V114h.099998c.700001.099998 1.299999.099998 2-.099998 0-.099998-.099998-.199997-.099998-.300003-.299999.300003-.599998.699997-1 1 .099998 0 .099998 0 .200001.099998-.099998-.099998-.200001-.199997-.299999-.099998-.200001 0-.400002.099998-.599998.099998 0 .099998.099998.199997.099998.300003.5-.300003 1-.400002 1.599998-.5.299999 0 .5-.099998.799999 0 .200001 0 .400002.099998.599998.300003.099998.199997.299999 0 .299999-.199997-.299999-.400002-1-.400002-1.5-.300003-.599998.099998-1.299999.300003-1.799999.599998-.099998.099998-.099998.300003.099998.300003s.299999 0 .400002-.099998c0 0 .299999-.099998.299999 0s.099998.099998.200001.099998c.400002-.300003.700001-.599998 1-1 .099998-.099998 0-.300003-.099998-.300003-.299999.099998-.700001.199997-1.099998.199997h-.599998c-.200001 0-.299999-.099998-.5-.099998-.099998 0-.099998.099998-.200001.099998v.099998c0 .099998 0 0 0 0-.099998 0-.200001-.099998-.299999-.099998-.299997-.099998-.399999.300004-.399999.599999.099998 0 .099998-.099998.200001-.099998v-.199996c0-.099998-.099998-.099998-.200001-.099998h-.199996c-.099998-.099998-.099998-.099998-.200001-.199997-.200001-.099998-.299999.099998-.299999.300003 0 .300003.200001.5.099998.699997.099998 0 .099998-.099998.200001-.099998-.400002-.199997-.900002-.099998-1.299999.199997-.299999.300003-.299999.699997.099998.900002.099998 0 .200001-.099998.200001-.199997-.299999-.300003-.700001-.300003-1-.300003-.400002 0-.900002.099998-1.099998.400002v.199997c.099998.099998.299999.199997.400002.199997h.599998c.400002 0 .799999-.099998 1.200001-.199997.599998-.099998 1.400002-.300003 1.599998-1 .099998-.300003-.099998-.699997-.200001-1-.200001-.300003-.400002-.599998-.700001-.800003-.5-.400002-1.099998-.800003-1.900002-.800003-.299999 0-.700001.099998-1 .400002s-.400002.699997-.299999 1c-.499993-.200009-.199989-.300015-.299992-.500012z" class="st6"/>
  <path d="M54.599998 95.599991H21.700001c-.299999 0-.5-.199997-.5-.5s.200001-.5.5-.5h32.900002c.299999 0 .5.199997.5.5.099998.300003-.200001.5-.500005.5zm0 3.200004H21.700001c-.299999 0-.5-.199997-.5-.5s.200001-.5.5-.5h32.900002c.299999 0 .5.199997.5.5-.000005.299996-.200001.5-.500005.5zm0 3.199997H21.700001c-.299999 0-.5-.199997-.5-.5s.200001-.5.5-.5h32.900002c.299999 0 .5.199997.5.5-.000005.300003-.200001.5-.500005.5zm0 3.300003H21.700001c-.299999 0-.5-.199997-.5-.5s.200001-.5.5-.5h32.900002c.299999 0 .5.199997.5.5-.000005.199997-.200001.5-.500005.5zm-9-15.700004h-15c-1 0-1.700001-.800003-1.700001-1.699997 0-1 .799999-1.699997 1.700001-1.699997h15c1 0 1.700001.800003 1.700001 1.699997.100003.900001-.700001 1.699997-1.700001 1.699997zm2.5-11.199997H27.9c-.299999 0-.5-.199997-.5-.5s.200001-.5.5-.5h20.199999c.299999 0 .5.199997.5.5-.000001.299995-.199997.5-.500001.5z" class="st7"/>
  <path d="M15.6 141.800003h62.099998v41.400009H15.6z" class="st0"/>
  <path d="M79.900002 185.699997H13.5v-45.900009h66.400002v45.900009zM17.799999 181.5h57.899998V144H17.799999v37.5z" class="st8"/>
  <path d="M55.700001 167.399994h-18c-.299999 0-.5-.199997-.5-.5s.200001-.5.5-.5h18.100002c.299999 0 .5.199997.5.5-.100002.300003-.300003.5-.600002.5zm8.499996 2.900009H29.1c-.299999 0-.5-.199997-.5-.5s.200001-.5.5-.5h35.099998c.300003 0 .5.199997.5.5-.000001.300003-.199998.5-.500001.5zm0 2.800003H29.1c-.299999 0-.5-.199997-.5-.5s.200001-.5.5-.5h35.099998c.300003 0 .5.199997.5.5-.000001.299988-.199998.5-.500001.5zM61.400002 176H31.9c-.299999 0-.5-.199997-.5-.5s.200001-.5.5-.5h29.4c.299999 0 .5.199997.5.5-.000001.300003-.200002.5-.399998.5z" class="st9 st10"/>
  <path d="M53.299999 159.100006H40c-.900002 0-1.599998-.699997-1.599998-1.600006 0-.899994.700001-1.600006 1.599998-1.600006h13.400002c.900001 0 1.599998.699997 1.599998 1.600006-.099998.899994-.799999 1.600006-1.700001 1.600006zM55.5 149.199997h-18c-.299999 0-.5-.199997-.5-.5s.200001-.5.5-.5h18.099998c.299999 0 .5.199997.5.5-.099998.199997-.299999.5-.599998.5z" class="st11"/>
  <path d="M78.300003 65.899994h45.5v62h-45.5z" class="st0"/>
  <path d="M126.199997 130.100006H75.599998V63.499992h50.599998v66.600014zm-45.799995-4.700012h41.200005V68.199989H80.400002v57.200005z" class="st12"/>
  <circle cx="111.5" cy="115.599991" r="5.5" class="st5"/>
  <path d="M96.800003 113.299995c-.199997-.099998-.400002-.199997-.599998 0-.199997.099998-.199997.300003-.199997.5 0 .5.199997.900002.300003 1.400002 0 .199997.099998.400002-.099998.599998-.199997.099998-.400002.099998-.599998.099998-.5 0-.900002 0-1.400002-.099998s-1-.300003-1.5-.5c-.199997-.099998-.300003.199997-.199997.300003.900002.400002 1.800003.699997 2.800003.699997.199997 0 .5 0 .699997-.099998.199997 0 .400002-.099998.5-.199997.199997-.199997.199997-.400002.099998-.599998 0-.300003-.099998-.5-.199997-.699997-.099998-.300003-.099998-.5-.199997-.800003 0-.099998 0-.300003.099998-.300003.099998-.099998.300003 0 .400002.099998.199982-.100006.29998-.300003.099983-.400002z" class="st6"/>
  <path d="M94.599998 113.999992c-.099998-.300003 0-.5.199997-.699997s.5-.300003.800003-.300003c.599998 0 1.099998.300003 1.599998.699997l.599998.599998s.300003.5.300003.800003c0 .599998-.699997.800003-1.199997.900002-.300003.099998-.699997.199997-1.099998.199997h-.5c-.099998 0-.300003 0-.400002-.099998v.199997c.099998-.099998.199997-.199997.300003-.199997.199997-.099998.300003-.099998.5-.099998.300003 0 .599998 0 .800003.199997l.199997-.199997c-.099998 0-.099998-.199997-.099998-.199997 0-.099998.199997-.199997.300003-.300003.300003-.099998.599998-.099998.900002 0 .099998 0 .199997 0 .199997-.099998.099998-.199997 0-.400002 0-.599998V114.5h-.099998l.099998.099998s.099998.099998.199997.099998H98.4s.099998 0 0 0c.1.099999.1.199998.199998.300004.099998 0 .199997 0 .199997-.099998s.099998-.199997.099998-.300003V114.5l.099998.099998.099998.099998c.099998 0 .199997.099998.300003 0l.099998-.099998V114.5h.099998c.699997.099998 1.300003.099998 2-.099998 0-.099998-.099998-.199997-.099998-.300003-.300003.300003-.599998.699997-1 .900002.099998 0 .099998 0 .199997.099998-.099996-.099999-.199995-.199997-.300001-.099999-.199997 0-.400002.099998-.599998.099998 0 .099998.099998.199997.099998.300003.5-.300003 1-.400002 1.599998-.5.300003 0 .5-.099998.800003 0 .199997 0 .400002.099998.599998.300003.099998.199997.300003 0 .300003-.199997-.300003-.400002-1-.400002-1.5-.300003-.599998.099998-1.300003.300003-1.800003.599998-.099998.099998-.099998.300003.099998.300003.099998 0 .300003 0 .400002-.099998 0 0 .300003-.099998.300003 0s.099998.099998.199997.099998c.400002-.300003.699997-.599998 1-1 .099998-.099998 0-.300003-.099998-.300003-.300003.099998-.699997.199997-1.099998.199997h-.599998s-.300003-.099998-.5-.099998c-.099998 0-.099998.099998-.199997.099998v.099998c0 .099998 0 0 0 0-.099998 0-.199997-.099998-.300003-.099998-.300003-.099998-.400002.300003-.400002.599998.099998 0 .099998-.099998.199997-.099998v-.199996c0-.099998-.099998-.099998-.199997-.099998h-.199996l-.199997-.199997c-.199997-.099998-.300003.099998-.300003.300003 0 .300003.199997.5.099998.699997.099998 0 .099998-.099998.199997-.099998-.400002-.199997-.900002-.099998-1.300003.199997-.300003.300003-.300003.699997.099998.900002.099998 0 .199997-.099998.199997-.199997-.300003-.300003-.699997-.300003-1-.300003-.400002 0-.900002.099998-1.099998.400002v.199997c.099998.099998.300003.199997.400002.199997h.599998c.400002 0 .800003-.099998 1.199997-.199997.599998-.099998 1.400002-.300003 1.5-1 .099998-.300003-.099998-.699997-.199997-1-.199997-.300003-.400002-.599998-.699997-.800003-.5-.400003-1.099999-.800005-1.900002-.800005-.300003 0-.699997.099998-1 .400002s-.400002.699997-.300003 1c-.499977-.200013-.199982-.300011-.199982-.40001z" class="st6"/>
  <g class="st9">
    <path d="M108.300003 98.299995H94.5c-.300003 0-.5-.199997-.5-.5s.199997-.5.5-.5h13.800003c.300003 0 .5.199997.5.5.099999.199997-.200005.5-.5.5zM111.5 101.499992H91.400002c-.300003 0-.5-.199997-.5-.5s.199997-.5.5-.5H111.5c.300003 0 .5.199997.5.5s-.199997.5-.5.5zm0 3.099999H91.400002c-.300003 0-.5-.199997-.5-.5s.199997-.5.5-.5H111.5c.300003 0 .5.199997.5.5s-.199997.5-.5.5zm0 3.200004H91.400002c-.300003 0-.5-.199997-.5-.5s.199997-.5.5-.5H111.5c.300003 0 .5.199997.5.5 0 .299996-.300003.5-.5.5z" class="st6"/>
    <path d="M108.800003 92.199989H94c-.900002 0-1.699997-.800003-1.699997-1.699997 0-.900002.800003-1.699997 1.699997-1.699997h14.900002c.900002 0 1.699997.800003 1.699997 1.699997-.000001 1-.799996 1.699997-1.799996 1.699997zM105 81.099991h-7.5c-.300003 0-.5-.199997-.5-.5s.199997-.5.5-.5h7.5c.300003 0 .5.199997.5.5s-.199997.5-.5.5z" class="st13"/>
  </g>
  <path d="M166 64.699989h13.300003v32.699997H166z" class="st14"/>
  <path d="M172.699997 92.599991l.900009 1 1-.900002.799988 1.100006L176.5 92.999992l.600006 1.199997 1.199997-.699997.5 1.300003 1.199997-.5.399994 1.299996 1.300003-.400002.100006 1.300003 1.399994-.199997v1.299996h1.400009L184.5 98.899994l1.300003.099998-.300003 1.300003 1.399994.299996-.399994 1.200004 1.300003.399994-.600006 1.300003 1.199997.5-.699997 1.099999 1.199997.700004-.799988 1.099999 1.099991.799995-1 .900002 1 1-1 .800003.900009 1-1.200012.799995.800003 1.100006-1.199997.599999.600006 1.199997-1.300003.400001.5 1.300003L186 117.099991l.399994 1.300003L185 118.599991l.199997 1.300003h-1.300003v1.400001L182.5 121.099991l-.100006 1.400001-1.299988-.300003-.300003 1.300003-1.199997-.5-.5 1.300003-1.200012-.600006-.5 1.300003-1.199997-.800003-.699997 1.200005-1-.900002-.800003 1.099999-1-1-.899994 1-.900009-1.099999-1 .900002-.699997-1.200005-1.099991.800003-.600006-1.300003-1.199997.600006-.400009-1.300003-1.299988.5-.300003-1.300003L163 122.499992l-.100006-1.400001-1.399994.200004.100006-1.400001h-1.400009l.199997-1.300003-1.299988-.199997.299988-1.300003-1.299988-.299996.5-1.300003-1.300003-.400001.599991-1.199997-1.199997-.599999.800003-1.100006-1.199997-.799995.899994-1-1-.800003 1-1-1-.900002 1.100006-.799995-.800003-1.099999 1.199997-.700004L157 103.999992l1.199997-.5-.5-1.300003L159 101.799995l-.399994-1.200004 1.299988-.299996-.299988-1.300003L161 98.899994l-.100006-1.300003h1.300003v-1.299996l1.400009.199997.199997-1.300003 1.300003.400002.299988-1.299996 1.300003.5.5-1.300003 1.100006.699997L169 92.999992l1.100006.800003.699997-1.100006 1 .900002z" class="st15"/>
  <circle cx="172.699997" cy="109.099991" r="14.800003" class="st16"/>
  <path d="M176 100.199989v18.5h-5.100006v-12.099998c-.800003.599998-1.600006 1.099998-2.399994 1.5-.800003.400002-1.699997.800003-2.899994 1.099998v-4.199997c1.699997-.599998 3.100006-1.199997 4-2s1.699997-1.699997 2.199997-2.900002H176v.099999z" class="st17"/>
  <path d="M176 100.199989c.100006 1.5.100006 3.099998.199997 4.599998 0 1.5.100006 3.099998.100006 4.599998v4.599998s-.100006 3.099998-.100006 4.599998v.199997H176c-1.699997-.099998-3.399994-.099998-5.100006-.099998h-.100006v-.099998c0-4-.199997-8.099998-.199997-12.099998l.5.199997c-.800003.599998-1.600006 1.199997-2.600006 1.599998-.899994.5-1.899994.800003-2.800003 1.099998l-.399994.099998v-4.699997l.199997-.099998c1.300003-.400002 2.5-.900002 3.600006-1.699997 1.100006-.800003 2-1.800003 2.600006-3l.100006-.099998h.100006c1.299988.100007 2.699997.200006 4.099991.300004zm-.100006 0c-1.399994 0-2.800003.099998-4.100006.099998l.199997-.099998c-.600006 1.300003-1.399994 2.400002-2.600006 3.300003-1.100006.800003-2.399994 1.400002-3.699997 1.800003l.199997-.300003v4.099998l-.399994-.300003c.899994-.300003 1.899994-.599998 2.699997-1 .899994-.400002 1.699997-.900002 2.5-1.5l.5-.400002v.599998c0 4-.199997 8.099998-.199997 12.099998l-.100006-.099998c1.699997 0 3.399994 0 5.100006-.099998l-.199997.199997c0-1.5-.100006-3.099998-.100006-4.599998v-4.599998s0-3.099998.100006-4.599998c.000015-1.599999.100006-3.099999.100006-4.599999z" class="st15"/>
  <path d="M139.199997 67.299995H152.5v67.800011h-13.300003z" class="st18"/>
  <path d="M145.899994 130.100006l.900009 1 1-.900009.800003 1.100006 1.099991-.800003.600006 1.199997 1.199997-.599991.5 1.199997 1.199997-.5.300003 1.300003 1.300003-.400009L155 134.100006l1.399994-.200012v1.300003l1.400009-.099991-.100006 1.399994L159 136.600006l-.300003 1.299988 1.400009.200012-.400009 1.299988 1.199997.400009-.5 1.199997 1.200012.5-.700012 1.199997 1.200012.699997-.800003 1 1.099991.800003-1 1 1 .900009-1 .899994.900009 1-1.199997.699997.799988 1.199997-1.199997.600006.600006 1.199997L160 153.100006l.5 1.299988-1.300003.300003L159.600006 156l-1.400009.100006.199997 1.399994h-1.299988v1.300003l-1.400009-.100006L155.600006 160l-1.300003-.300003L154 161.100006l-1.199997-.5-.5 1.299988-1.199997-.599991-.5 1.199997-1.200012-.699997-.699997 1.099991-1-.799988-.899994 1.099991-.900009-1-.899994 1-.899994-1.099991-1 .799988-.700012-1.099991-1.199997.699997-.5-1.199997-1.199997.599991-.5-1.299988-1.199997.5-.300003-1.400009L136.199997 160l-.099991-1.300003-1.400009.100006.100006-1.300003h-1.400009l.200012-1.399994L132.300003 156l.300003-1.300003-1.300003-.300003.5-1.299988-1.300003-.400009.600006-1.199997-1.200012-.600006.800003-1.199997L129.5 149l.899994-1-1-.899994 1-.900009-1-1 1.100006-.800003-.800003-1 1.199997-.699997-.699997-1.199997 1.199997-.5-.5-1.199997 1.300003-.400009-.5-1.299988 1.400009-.200012-.300003-1.299988 1.399994-.100006L134 135.100006l1.399994.099991v-1.300003l1.400009.200012L137 132.699997l1.300003.400009.300003-1.300003 1.299988.5.400009-1.199997 1.199997.599991.699997-1.199997 1.100006.800003L144 130.199997l1 .900009z" class="st15"/>
  <circle cx="145.899994" cy="146.600006" r="14.800003" class="st16"/>
  <path d="M157.600006 150c.899994-.5 1.199997-1.699997 1.5-2.300003v-.100006H159c-1.199997 0-1.899994.600006-2.300003 1 .100006-.300003.199997-.699997.199997-1 0 0 .600006 0 1.300003-.600006s.699997-1.899994.899994-2.5v-.100006h-.100006c-1.199997.300003-1.699997 1.100006-1.899994 1.600006v-.5c.199997-.199997.300003-.600006.199997-1.199997s-.199997-1.5-1.300003-2.300003H156v.100006c-.100006.600006-.5 1.800003-.100006 2.699997.199997.5.600006.699997.699997.899994v.5c-.300003-.5-.899994-1.300003-2.199997-1.399994h-.100006v.100006c.199997.600006.399994 1.899994 1.199997 2.399994.399994.300003.699997.300003 1 .399994-.100006.399994-.199997.899994-.300003 1.300003 0-.100006 0-.100006-.100006-.100006-.199997-.600006-.600006-1.5-1.800003-2h-.100006v.100006c.100006.600006-.100006 1.899994.600006 2.699997.300003.399994.699997.600006.899994.699997-.199997.5-.399994.899994-.600006 1.300003 0-.600006-.199997-1.600006-1.199997-2.399994h-.100006v.100006c-.100006.600006-.600006 1.899994-.199997 2.699997.199997.5.5.699997.699997.899994-.300003.5-.699997.899994-1.100006 1.199997v-.100006c.199997-.600006.300003-1.600006-.5-2.699997v-.100006l-.100006.100006c-.300003.600006-1.100006 1.600006-1 2.5.100006.5.199997.899994.399994 1-.5.300003-.899994.600006-1.399994.800003 0-.100006.100006-.100006.100006-.100006.300003-.5.800003-1.399994.399994-2.699997v-.100006h-.100006c-.5.5-1.600006 1.100006-1.699997 2.100006-.100006.600006 0 1 .100006 1.199997-.5.199997-1 .300003-1.5.399994-.199997.100006 0 .300003.300003.300003.5-.100006.899994-.199997 1.399994-.399994.100006.199997.399994.600006 1 .899994.899994.399994 2.100006-.100006 2.699997-.300003h.100006l-.100006-.100006c-.699997-.899994-1.699997-1.100006-2.199997-1.100006.399994-.199997.800003-.5 1.100006-.699997.100006.100006.5.5 1.300003.600006 1 .100006 1.899994-.800003 2.5-1.100006l.100006-.100006h-.100006c-1.100006-.699997-2-.600006-2.600006-.300003.399994-.300003.699997-.699997 1.100006-1.199997 0 0 .600006.300003 1.399994.100006.899994-.199997 1.600006-1.300003 2.100006-1.800003v-.100006h-.100006c-1.300003-.300003-2.100006.100006-2.600006.5.199997-.399994.5-.800003.600006-1.300003.500045-.099946 1.100051.000045 1.700057-.399949z" class="st15"/>
  <path d="M151 153c-.399994.399994-.899994.899994-1.100006 1.399994-.199997.399994-.199997.899994-.100006 1.399994m.100006.600006C150.299988 156.799988 151 157 151.599991 157c.5 0 .899994-.199997 1.399994-.199997m-.299988-5.199997c-.399994.600006-.800003 1.199997-.800003 1.899994 0 .399994.100006.899994.399994 1.199997v-.100006M152.5 155c.600006.300003 1.399994.399994 2.100006.100006.399994-.199997.800003-.5 1.300003-.5V154.5m-1.800003-4.899994c-.399994 1-.199997 2.199997.5 3m3.099991-1.200012c-.300003.399994-.699997.800003-1.199997 1.100006s-1 .399994-1.600006.300003c-.100006 0-.100006 0-.100006-.100006M154.5 147.100006c-.100006 1.100006.5 2.300003 1.300003 3m3-2.100006c-.199997.5-.5 1.100006-.899994 1.5s-1 .699997-1.600006.800003m-1.600006-5.199997c.199997 1 1 2 2 2.300003m2.100006-2.600006c-.199997.5-.199997 1.199997-.5 1.699997-.300003.399994-.699997.699997-1.199997 1 0 0 0-.100006.100006-.100006m-1.000015-4.799988c-.199997.5-.199997 1-.100006 1.600006.100006.5.399994 1 .800003 1.399994" class="st19"/>
  <path d="M135.800003 150.399994c.199997.5.399994.899994.600006 1.300003-.5-.399994-1.399994-.800003-2.600006-.5h-.100006v.100006c.5.5 1.100006 1.600006 2.100006 1.800003.899994.199997 1.399994-.100006 1.399994-.100006.300003.5.699997.899994 1.100006 1.199997-.600006-.199997-1.5-.300003-2.600006.300003h-.100006l.100006.100006c.600006.300003 1.5 1.199997 2.5 1.100006.899994-.100006 1.300003-.5 1.300003-.600006.300003.199997.699997.5 1.100006.699997-.600006 0-1.5.199997-2.199997 1.100006l-.100006.100006h.100006c.699997.199997 1.899994.699997 2.699997.300003.600006-.300003.899994-.699997 1-.899994.5.199997.899994.300003 1.399994.399994.300003 0 .5-.300003.300003-.300003-.5-.100006-1-.199997-1.5-.399994.100006-.199997.199997-.600006.100006-1.199997-.100006-1-1.300003-1.699997-1.699997-2.100006h-.100006v.100006c-.399994 1.300003.100006 2.199997.399994 2.699997 0 .100006.100006.100006.100006.100006-.5-.199997-.899994-.5-1.399994-.800003.199997-.199997.300003-.5.399994-1 .100006-.899994-.699997-1.899994-1-2.5L139 151.300018v.100006c-.800003 1.100006-.600006 2.100006-.5 2.699997v.100006c-.399994-.300003-.800003-.699997-1.100006-1.199997.199997-.100006.5-.399994.699997-.899994.399994-.899994-.100006-2.100006-.199997-2.699997v-.100006h-.100006c-1 .800003-1.199997 1.800003-1.199997 2.399994-.199997-.399994-.5-.800003-.600006-1.300003.199997-.100006.600006-.300003.899994-.699997.600006-.699997.5-2.100006.600006-2.699997v-.100006h-.100006c-1.300003.5-1.699997 1.399994-1.800003 2l-.100006.100006c-.100006-.399994-.199997-.899994-.300003-1.300003.199997-.100006.600006-.100006 1-.399994.800003-.5 1-1.800003 1.199997-2.399994v-.100006h-.100006c-1.300003.199997-1.899994.899994-2.199997 1.399994v-.5c.199997-.100006.5-.399994.699997-.899994.5-.899994.100006-2.100006-.100006-2.699997v-.100006h-.100006c-1.100006.699997-1.300003 1.699997-1.300003 2.300003s.100006 1 .199997 1.199997v.5c-.199997-.5-.699997-1.300003-1.899994-1.600006h-.100006v.100006c.199997.600006.199997 1.899994.899994 2.5.600006.600006 1.300003.600006 1.300003.600006.100006.300003.100006.699997.199997 1-.399994-.5-1.100006-1-2.300003-1h-.100006v.100006c.300003.600006.600006 1.800003 1.5 2.300003.900069.399949 1.500075.299958 1.800078.399949z" class="st15"/>
  <path d="M140.899994 153c.399994.399994.899994.899994 1.100006 1.399994.199997.399994.199997.899994.100006 1.399994M142 156.399994c-.399994.399994-1.100006.600006-1.699997.600006-.5 0-.899994-.199997-1.399994-.199997m.299988-5.199997c.399994.600006.800003 1.199997.800003 1.899994 0 .399994-.100006.899994-.399994 1.199997v-.100006M139.399994 155c-.600006.300003-1.399994.399994-2.100006.100006-.399994-.199997-.800003-.5-1.300003-.5V154.5m1.800018-4.899994c.399994 1 .199997 2.199997-.5 3m-3.100006-1.200012c.300003.399994.699997.800003 1.199997 1.100006s1 .399994 1.600006.300003c.100006 0 .100006 0 .100006-.100006m.299988-5.599991c.100006 1.100006-.5 2.300003-1.300003 3M133.100006 148c.199997.5.5 1.100006.899994 1.5s1 .699997 1.600006.800003m1.599991-5.199997c-.199997 1-1 2-2 2.300003m-2.099991-2.600006c.199997.5.199997 1.199997.5 1.699997.300003.399994.699997.699997 1.199997 1 0 0 0-.100006-.100006-.100006m1-4.799988c.199997.5.199997 1 .100006 1.600006-.100006.5-.399994 1-.800003 1.399994" class="st19"/>
  <path d="M139.800003 142.300003c.100006-1.199997 1-2.199997 2.100006-2.5.600006 1 .5 2.199997.100006 3.300003S140.700012 145 139.700012 145.5c-.199997-.899994.199997-1.800003.800003-2.399994.600006-.600006 1.5-.899994 2.399994-1 .600006.800003.600006 1.899994 0 2.699997.199997-.800003.899994-1.5 1.800003-1.600006.300003.5.5 1 .399994 1.600006.199997-.699997.899994-1.300003 1.699997-1.300003.100006.300003.199997.5.199997.800003.5-.399994 1.100006-.800003 1.800003-1 .199997.600006.399994 1.300003.600006 1.899994.100006-.5.5-.899994.899994-1.100006s1.100006.100006 1.199997.600006c.699997-.399994 1.300003-.800003 1.800003-1.300003" class="st20"/>
  <path d="M121.099998 180.600006h122.699989v4.5H121.099998z" class="st8"/>
  <path id="Layer0_23_FILL_1_" d="M169.200003 180.700006v-12H234.9v12h-65.699997z" class="st21"/>
  <path id="Layer0_23_MEMBER_0_FILL_1_" d="M228.000006 168.700006v12c0 .200012.100006.5.300003.600006.199997.200012.399994.299988.600006.299988s.5-.100006.600006-.299988.300003-.399994.300003-.600006v-12c0-.200012-.100006-.5-.300003-.600006-.199997-.200012-.399994-.299988-.600006-.299988s-.5.100006-.600006.299988c-.200012.100006-.300003.399994-.300003.600006m-2.800003 0v12c0 .200012.100006.5.300003.600006s.399994.299988.600006.299988c.199997 0 .5-.100006.600006-.299988.199997-.200012.300003-.399994.300003-.600006v-12c0-.200012-.100006-.5-.300003-.600006-.199997-.200012-.399994-.299988-.600006-.299988-.199997 0-.5.100006-.600006.299988-.200012.100006-.300003.399994-.300003.600006m-52.5 0v12c0 .200012.100006.5.300003.600006.199997.200012.399994.299988.600006.299988s.5-.100006.600006-.299988c.199997-.200012.300003-.399994.300003-.600006v-12c0-.200012-.100006-.5-.300003-.600006-.199997-.200012-.399994-.299988-.600006-.299988s-.5.100006-.600006.299988c-.200012.100006-.300003.399994-.300003.600006m2.800003 12c0 .200012.100006.5.300003.600006s.399994.299988.600006.299988c.199997 0 .5-.100006.600006-.299988.199997-.200012.300003-.399994.300003-.600006v-12c0-.200012-.100006-.5-.300003-.600006-.199997-.200012-.399994-.299988-.600006-.299988-.199997 0-.5.100006-.600006.299988-.199997.200012-.300003.399994-.300003.600006v12z" class="st22"/>
  <path id="Layer0_24_FILL_1_" d="M222.799994 109.150006h12V168.55h-12v-59.399994z" class="st23"/>
  <path id="Layer0_24_MEMBER_0_FILL_1_" d="M222.799994 109.150006V168.55h1.899994v-59.399994h-1.899994M233.000006 168.55h1.800003v-59.399994h-1.800003V168.55z" class="st24"/>
  <path id="Layer0_25_FILL_1_" d="M210.750003 103.450006h12v65.699982h-12v-65.699982z" class="st25"/>
  <path id="Layer0_25_MEMBER_0_FILL_1_" d="M213.250003 103.450006h7.100006v65.699982h-7.100006v-65.699982z" class="st26"/>
  <path id="Layer0_26_FILL_1_" d="M197.399994 104.45h12.5v64.700012h-12.5V104.45z" class="st27"/>
  <path id="Layer0_26_MEMBER_0_FILL_1_" d="M197.300003 169.150012h12.5v-2L203.5 164.45l-6.199997 2.700012v2m0-64.700012v2.799988c1.800003.899994 3.800003 1.899994 5.899994 3 1.899994-1 4.100006-2 6.5-3V104.45h-12.399994z" class="st28"/>
  <path d="M49.42627 20.839842v13.879885c0 .595703-.506348 1.102051-1.102051 1.102051h-1.459473c-.595703 0-1.102051-.506348-1.102051-1.102051v-18.64551c0-.595702.506348-1.10205 1.102051-1.10205H48.5625c.595703 0 1.072266.238281 1.429688.744629l6.58252 8.995116 6.284668-8.995116c.327637-.506348.804199-.744629 1.399902-.744629h1.459473c.595703 0 1.102051.506348 1.102051 1.10205v18.64551c0 .595703-.506348 1.102051-1.102051 1.102051h-1.429688c-.595703 0-1.102051-.506348-1.102051-1.102051v-13.96924l-5.450684 7.654785c-.744629 1.072266-2.025391 1.072266-2.82959 0l-5.480468-7.56543zm27.524902 8.905762c.119141.297852.327637.953125.655273 1.936035.148926-.86377.327637-1.519043.476562-1.96582l2.055176-6.254883c.238281-.685059.714844-1.04248 1.459473-1.04248h.86377c.714844 0 1.310547.595703 1.310547 1.310547 0 .148926-.029785.327637-.089355.506348l-4.557129 11.586428c-.92334 2.382812-1.757324 3.961426-2.501953 4.765625s-1.638184 1.191406-2.680664 1.191406c-.744629 0-1.519043-.178711-2.263672-.565918-.357422-.178711-.536133-.476562-.536133-.86377 0-.148926.029785-.268066.089355-.387207l.387207-.804199c.208496-.446777.476562-.655273.86377-.655273.178711 0 .416992.029785.685059.089355.089355.029785.208496.029785.387207.029785.804199 0 1.489258-.685059 2.055176-2.084961l.297852-.714844L70.51758 24.17578c-.089355-.208496-.119141-.357422-.119141-.506348 0-.685059.536133-1.250977 1.250977-1.250977h1.280762c.595703 0 1.012695.268066 1.250977.833984l2.770017 6.493165zm30.710937-8.131348c0 1.876465-.685059 3.484863-2.025391 4.79541s-3.216797 1.96582-5.599609 1.96582c-1.221191 0-2.114746-.029785-2.710449-.089355v6.433596c0 .595703-.506348 1.102051-1.102051 1.102051h-1.459473c-.595703 0-1.102051-.506348-1.102051-1.102051v-18.64551c0-.595702.476562-1.10205 1.102051-1.10205 1.995605-.029785 3.604004-.05957 4.825195-.05957 6.105958 0 8.071778 3.246581 8.071778 6.701659zM97.32666 24.801268c.953125.089355 1.816895.148926 2.591309.148926 2.293457 0 3.87207-1.131836 3.87207-3.365723 0-2.174316-1.280762-3.246582-3.842285-3.246582-.446777 0-1.310547.029785-2.621094.05957v6.403809zm18.260254 11.348146c-2.174316 0-3.931641-.655273-5.271973-1.995605-1.340332-1.310547-2.025391-2.978518-2.025391-5.033693s.685059-3.723145 2.025391-5.063477c1.340332-1.310547 3.097656-1.96582 5.271973-1.96582s3.961426.655273 5.302246 1.96582c1.339844 1.340332 1.995117 3.008301 1.995117 5.063477s-.655273 3.723146-1.995117 5.033693c-1.34082 1.340332-3.12793 1.995605-5.302246 1.995605zm-3.633789-7.029299c0 2.233887 1.519043 3.842287 3.633789 3.842287 2.144531 0 3.663574-1.54883 3.663574-3.842287 0-2.233887-1.548828-3.8125-3.663574-3.8125-2.055176 0-3.633789 1.548828-3.633789 3.8125zm19.480469-3.723144c-.953125 0-1.667969.476562-2.144531 1.429688v7.893068c0 .595703-.505859 1.102051-1.101562 1.102051h-1.220703c-.595703 0-1.102539-.506348-1.102539-1.102051V23.520506c0-.595703.506836-1.102051 1.102539-1.102051h1.220703c.595703 0 1.101562.506348 1.101562 1.191406.804688-.953125 1.817383-1.429688 3.068359-1.429688.447266 0 .833984.05957 1.162109.208496.416016.148926.625.446777.625.86377 0 .148926-.029297.297852-.089844.416992l-.446289.953125c-.268555.565918-.655273.86377-1.22168.86377-.148438 0-.296875 0-.386719-.029785-.208983-.029785-.386718-.05957-.566405-.05957zm12.511718 8.369631c.089844.148926.149414.327637.149414.506348 0 .446777-.178711.774414-.506836.953125-1.011719.595703-2.144531.893555-3.365234.893555-2.949219 0-4.169922-1.816895-4.169922-5.391115V19.797361c0-.595703.505859-1.102051 1.101562-1.102051h1.22168c.595703 0 1.102539.506348 1.102539 1.102051v2.621094h3.216797c.595703 0 1.101562.506348 1.101562 1.102051v1.012695c0 .595703-.505859 1.102051-1.101562 1.102051h-3.216797v4.884766c0 1.6084.535156 2.4126 1.607422 2.4126.685547 0 1.310547-.297852 1.638672-.297852.386719 0 .714844.208496.923828.595703l.296875.536133zm6.524415-8.13135v9.084475c0 .595703-.506836 1.102051-1.102539 1.102051h-1.220703c-.595703 0-1.101562-.506348-1.101562-1.102051V20.244139c0-3.663574 1.756836-5.599608 4.765625-5.599608 1.101562 0 2.083984.238281 2.948242.685059.387695.208496.56543.506348.56543.953124 0 .178711-.058594.357422-.148438.506348l-.267578.476562c-.268555.506348-.685547.744629-1.22168.744629-.088867 0-.238281-.029785-.446289-.05957-.268555-.05957-.537109-.089355-.804688-.089355-1.310547 0-1.96582.893555-1.96582 2.650879v1.90625h2.532227c.595703 0 1.101562.506348 1.101562 1.102051v1.012695c0 .595703-.505859 1.102051-1.101562 1.102051h-2.532227zm12.540039 10.514162c-2.173828 0-3.931641-.655273-5.271484-1.995605-1.339844-1.310547-2.025391-2.978518-2.025391-5.033693s.685547-3.723145 2.025391-5.063477c1.339844-1.310547 3.097656-1.96582 5.271484-1.96582 2.174805 0 3.961914.655273 5.302734 1.96582 1.339844 1.340332 1.995117 3.008301 1.995117 5.063477s-.655273 3.723146-1.995117 5.033693c-1.34082 1.340332-3.12793 1.995605-5.302734 1.995605zm-3.632813-7.029299c0 2.233887 1.518555 3.842287 3.632812 3.842287 2.144531 0 3.664062-1.54883 3.664062-3.842287 0-2.233887-1.548828-3.8125-3.664062-3.8125-2.054687 0-3.632812 1.548828-3.632812 3.8125zm13.912109-13.045898c0-.595702.505859-1.10205 1.101562-1.10205h1.22168c.595703 0 1.102539.506348 1.102539 1.10205v14.654297c0 1.459475.386719 2.174318 1.161133 2.174318.119141 0 .268555-.029785.476562-.05957.476562-.119141.774414-.178711.922852-.178711.328125 0 .625977.208496.833984.595703l.328125.625488c.089844.148926.119141.297852.119141.446777 0 .387207-.238281.744629-.714844 1.04248-.893555.506348-1.996094.744629-3.276367.744629-2.174805 0-3.276367-1.340332-3.276367-3.991211v-16.0542zm13.195313 1.519043c0 1.310547-.923828 2.144531-1.966797 2.144531-1.220703 0-2.144531-.833984-2.144531-2.144531 0-1.191406.953125-1.995605 2.144531-1.995605 1.042969 0 1.966797.804199 1.966797 1.995605zm-1.429687 4.825195c.595703 0 1.101562.506348 1.101562 1.102051v11.199221c0 .595703-.505859 1.102051-1.101562 1.102051h-1.22168c-.595703 0-1.102539-.506348-1.102539-1.102051V23.520506c0-.595703.506836-1.102051 1.102539-1.102051h1.22168zm11.884765 13.730959c-2.173828 0-3.931641-.655273-5.271484-1.995605-1.339844-1.310547-2.025391-2.978518-2.025391-5.033693s.685547-3.723145 2.025391-5.063477c1.339844-1.310547 3.097656-1.96582 5.271484-1.96582 2.174805 0 3.961914.655273 5.302734 1.96582 1.339844 1.340332 1.995117 3.008301 1.995117 5.063477s-.655273 3.723146-1.995117 5.033693c-1.34082 1.340332-3.127929 1.995605-5.302734 1.995605zm-3.632812-7.029299c0 2.233887 1.518555 3.842287 3.632812 3.842287 2.144531 0 3.664062-1.54883 3.664062-3.842287 0-2.233887-1.548828-3.8125-3.664062-3.8125-2.054687 0-3.632812 1.548828-3.632812 3.8125z" class="st29"/>
</svg>
